<svg xmlns="http://www.w3.org/2000/svg" xmlns:xlink="http://www.w3.org/1999/xlink" xmlns:lucid="lucid" width="1940" height="2535"><g transform="translate(300 -20)" lucid:page-tab-id="0_0"><path d="M-1806.87 0h3677.74v6358.17h-3677.74z" fill="#fff"/><path d="M280 417.42a6 6 0 0 1 6-6h88a6 6 0 0 1 6 6v8a14.5 14.5 0 0 1-4.24 10.24l-1.52 1.5a14.5 14.5 0 0 1-10.24 4.26h-78a6 6 0 0 1-6-6z" fill="#fff"/><path d="M380 411.42v20l-10 10h-90" stroke="#3a414a" fill="none"/><path d="M280 417.42a6 6 0 0 1 6-6h1308a6 6 0 0 1 6 6v488a6 6 0 0 1-6 6H286a6 6 0 0 1-6-6zM280 661.42h20m15 0h20m15 0h20m15 0h20m15 0h20m15 0h20m15 0h20m15 0h20m15 0h20m15 0h20m15 0h20m15 0h20m15 0h20m15 0h20m15 0h20m15 0h20m15 0h20m15 0h20m15 0h20m15 0h20m15 0h20m15 0h20m15 0h20m15 0h20m15 0h20m15 0h20m15 0h20m15 0h20m15 0h20m15 0h20m15 0h20m15 0h20m15 0h20m15 0h20m15 0h20m15 0h20m15 0h20m15 0h20" stroke="#3a414a" fill="none"/><use xlink:href="#a" transform="matrix(1,0,0,1,288,411.4173228346456) translate(0 19.444444444444443)"/><use xlink:href="#b" transform="matrix(1,0,0,1,292,449.4173228346456) translate(0 19.444444444444443)"/><use xlink:href="#c" transform="matrix(1,0,0,1,292,449.4173228346456) translate(71.5432098765432 19.444444444444443)"/><use xlink:href="#d" transform="matrix(1,0,0,1,292,669.4173228346456) translate(0 19.444444444444443)"/><path d="M-20 1146a6 6 0 0 1 6-6h88a6 6 0 0 1 6 6v8a14.5 14.5 0 0 1-4.24 10.24l-1.52 1.52A14.5 14.5 0 0 1 64 1170h-78a6 6 0 0 1-6-6z" fill="#fff"/><path d="M80 1140v20l-10 10h-90" stroke="#3a414a" fill="none"/><path d="M-20 1146a6 6 0 0 1 6-6h1608a6 6 0 0 1 6 6v548a6 6 0 0 1-6 6H-14a6 6 0 0 1-6-6zM-20 1420H0m15 0h20m15 0h20m15 0h20m15 0h20m15 0h20m15 0h20m15 0h20m15 0h20m15 0h20m15 0h20m15 0h20m15 0h20m15 0h20m15 0h20m15 0h20m15 0h20m15 0h20m15 0h20m15 0h20m15 0h20m15 0h20m15 0h20m15 0h20m15 0h20m15 0h20m15 0h20m15 0h20m15 0h20m15 0h20m15 0h20m15 0h20m15 0h20m15 0h20m15 0h20m15 0h20m15 0h20m15 0h20m15 0h20m15 0h20m15 0h20m15 0h20m15 0h20m15 0h20m15 0h20m15 0h20m15 0h10" stroke="#3a414a" fill="none"/><use xlink:href="#a" transform="matrix(1,0,0,1,-12,1140) translate(0 19.444444444444443)"/><use xlink:href="#b" transform="matrix(1,0,0,1,-8,1178) translate(0 19.444444444444443)"/><use xlink:href="#c" transform="matrix(1,0,0,1,-8,1178) translate(71.5432098765432 19.444444444444443)"/><use xlink:href="#d" transform="matrix(1,0,0,1,-8,1428) translate(0 19.444444444444443)"/><path d="M280 1906a6 6 0 0 1 6-6h88a6 6 0 0 1 6 6v8a14.5 14.5 0 0 1-4.24 10.24l-1.52 1.52A14.5 14.5 0 0 1 364 1930h-78a6 6 0 0 1-6-6z" fill="#fff"/><path d="M380 1900v20l-10 10h-90" stroke="#3a414a" fill="none"/><path d="M280 1906a6 6 0 0 1 6-6h1308a6 6 0 0 1 6 6v488a6 6 0 0 1-6 6H286a6 6 0 0 1-6-6zM280 2150h20m15 0h20m15 0h20m15 0h20m15 0h20m15 0h20m15 0h20m15 0h20m15 0h20m15 0h20m15 0h20m15 0h20m15 0h20m15 0h20m15 0h20m15 0h20m15 0h20m15 0h20m15 0h20m15 0h20m15 0h20m15 0h20m15 0h20m15 0h20m15 0h20m15 0h20m15 0h20m15 0h20m15 0h20m15 0h20m15 0h20m15 0h20m15 0h20m15 0h20m15 0h20m15 0h20m15 0h20m15 0h20" stroke="#3a414a" fill="none"/><use xlink:href="#a" transform="matrix(1,0,0,1,288,1900) translate(0 19.444444444444443)"/><use xlink:href="#b" transform="matrix(1,0,0,1,292,1938) translate(0 19.444444444444443)"/><use xlink:href="#c" transform="matrix(1,0,0,1,292,1938) translate(71.5432098765432 19.444444444444443)"/><use xlink:href="#d" transform="matrix(1,0,0,1,292,2158) translate(0 19.444444444444443)"/><path d="M439.75 79.75c0 10.9-8.84 19.75-19.75 19.75-10.9 0-19.75-8.84-19.75-19.75C400.25 68.85 409.1 60 420 60c10.9 0 19.75 8.84 19.75 19.75z" stroke="#3a414a" fill="#fff"/><path d="M420 99.5v49.3a20.7 20.7 0 0 0 3.2 11.07L460 218m-40-63.2L380 218m0-98.75h80" stroke="#3a414a" fill="none"/><path d="M380 66a6 6 0 0 1 6-6h68a6 6 0 0 1 6 6v168a6 6 0 0 1-6 6h-68a6 6 0 0 1-6-6z" fill="none"/><use xlink:href="#e" transform="matrix(1,0,0,1,300,218) translate(62.09876543209876 17.77777777777778)"/><path d="M680 126a6 6 0 0 1 6-6h148a6 6 0 0 1 6 6v108a6 6 0 0 1-6 6H686a6 6 0 0 1-6-6z" stroke="#3a414a" fill="#fff"/><use xlink:href="#f" transform="matrix(1,0,0,1,680,120) translate(40.529999999999994 63.15)"/><use xlink:href="#g" transform="matrix(1,0,0,1,680,120) translate(87.47999999999999 63.15)"/><path d="M1060 126a6 6 0 0 1 6-6h148a6 6 0 0 1 6 6v108a6 6 0 0 1-6 6h-148a6 6 0 0 1-6-6z" stroke="#3a414a" fill="#fff"/><use xlink:href="#h" transform="matrix(1,0,0,1,1060,120) translate(43.029999999999994 63.15)"/><use xlink:href="#g" transform="matrix(1,0,0,1,1060,120) translate(84.97999999999999 63.15)"/><path d="M1440 126a6 6 0 0 1 6-6h148a6 6 0 0 1 6 6v108a6 6 0 0 1-6 6h-148a6 6 0 0 1-6-6z" stroke="#3a414a" fill="#fff"/><use xlink:href="#i" transform="matrix(1,0,0,1,1440,120) translate(41.529999999999994 51.9)"/><use xlink:href="#j" transform="matrix(1,0,0,1,1440,120) translate(28.629999999999995 73.5)"/><use xlink:href="#k" transform="matrix(1,0,0,1,1440,120) translate(89.47999999999999 73.5)"/><path d="M420 156.23v5m0 5v9.98m0 5v10m0 4.98v10m0 4.98v10m0 5v9.97m0 5v9.98m0 5v10m0 5v9.98m0 5v9.98m0 5v9.98m0 5V326m0 5V341m0 5v9.98m0 5v9.98m0 5v10m0 4.98v10m0 4.98v10m0 4.98v10m0 4.98v10m0 4.98v10m0 5v9.97m0 5v9.98m0 5v10m0 5v9.98m0 5v9.98m0 5v9.98m0 5v9.98m0 5v9.98m0 5v9.98m0 5v9.98m0 5v9.98m0 5v10m0 4.98v10m0 4.98v10m0 4.98v10m0 4.98v10m0 4.98v10m0 5v9.97m0 5v10m0 5v9.98m0 5v9.98m0 5v9.98m0 5v9.98m0 5v9.98m0 5v9.98m0 5v9.98m0 5v9.98m0 5v9.98m0 5v10m0 4.98v10m0 4.98v10m0 4.98v10m0 4.98v10m0 4.98v10m0 5v9.97m0 5v9.97m0 5v10m0 4.98v10m0 4.98v10m0 4.98v10m0 5v9.98m0 5v9.98m0 5v9.98m0 5v9.98m0 5v9.98m0 5v10m0 4.98v10m0 4.98v10m0 4.98v10m0 4.98v10m0 4.98v10m0 5v9.97m0 5v9.98m0 5v10m0 4.98v10m0 4.98v10m0 5v9.98m0 5v9.98m0 5v9.98m0 5v9.98m0 5v9.98m0 5v9.98m0 5v10m0 4.98v10m0 4.98v10m0 4.98v10m0 4.98v10m0 4.98v10m0 5v9.97m0 5v9.98m0 5v10m0 4.98v10m0 5v9.98m0 5v9.98m0 5v9.98m0 5v9.98m0 5v9.98m0 5v9.98m0 5v10m0 4.98v10m0 4.98v10m0 4.98v10m0 4.98v10m0 4.98v10m0 4.98v10m0 5v9.97m0 5v9.98m0 5v10m0 5v9.98m0 5v9.98m0 5v9.98m0 5v9.98m0 5v9.98m0 5v9.98m0 5v9.98m0 5v10m0 4.98v10m0 4.98v10m0 4.98v10m0 4.98v10m0 4.98v10m0 4.98v10m0 5v9.97m0 5v10m0 5v9.98m0 5v9.98m0 5v9.98m0 5v9.98m0 5v9.98m0 5v9.98m0 5v9.98m0 5v9.98m0 5v10m0 4.98v10m0 4.98v10m0 4.98v10m0 4.98v10m0 4.98v10m0 5v9.97m0 5v10m0 5v9.98m0 5v9.98m0 5v9.98m0 5v9.98m0 5v9.98m0 5v9.98m0 5v9.98m0 5v9.98m0 5v9.98m0 5v10m0 4.98v10m0 4.98v10m0 4.98v10m0 4.98v10m0 4.98v10m0 5v9.97m0 5v9.97m0 5v10m0 4.98v10m0 4.98v10m0 4.98v10m0 5v9.98m0 5v9.98m0 5v9.98m0 5v9.98m0 5v9.98m0 5v10m0 4.98v10m0 4.98v10m0 4.98v10m0 4.98v10m0 4.98v10m0 5v9.97m0 5v9.98m0 5v10m0 4.98v10m0 4.98v10m0 5v9.98m0 5v9.98m0 5v9.98m0 5v9.98m0 5v9.98m0 5v9.98m0 5v10m0 4.98v10m0 4.98v10m0 4.98v10m0 4.98v10m0 4.98v10m0 5v9.97m0 5v9.98m0 5v10m0 4.98v10m0 5v9.98m0 5v9.98m0 5v9.98m0 5v9.98m0 5v9.98m0 5v9.98m0 5v10m0 4.98v10m0 4.98v10m0 4.98v10m0 4.98v10m0 4.98v10m0 4.98v10m0 5v9.97m0 5v9.98m0 5v10m0 5v9.98m0 5v9.98m0 5v9.98m0 5v9.98m0 5v9.98m0 5v9.98m0 5v9.98m0 5v10m0 4.98v10m0 4.98v10m0 4.98v10m0 4.98v10m0 4.98v10m0 4.98v10m0 5v9.97m0 5v10m0 5v9.98m0 5v9.98m0 5v9.98m0 5v9.98m0 5v9.98m0 5v9.98m0 5v9.98m0 5v9.98m0 5v10m0 4.98v10m0 4.98v10m0 4.98v10m0 4.98v10m0 4.98v10m0 5v9.97m0 5v10m0 5v9.97m0 5v10m0 4.98v10m0 4.98v10m0 4.98v10m0 5v9.98m0 5v9.98m0 5v9.98m0 5v9.98m0 5v10m0 4.98v10m0 4.98v10m0 4.98v10m0 4.98v10m0 4.98v10m0 5v9.97m0 5v9.97m0 5v10m0 4.98v10m0 4.98v10m0 4.98v10m0 5v9.98m0 5v9.98m0 5v9.98m0 5v9.98m0 5v9.98m0 5v10m0 4.98v10m0 4.98v10m0 4.98v10m0 4.98v10m0 4.98v10m0 5v9.97m0 5v9.98m0 5v10m0 4.98v10m0 4.98v10m0 5v9.98m0 5v9.98m0 5v9.98m0 5v9.98m0 5v9.98m0 5v9.98m0 5v10m0 4.98v10m0 4.98v10m0 4.98v10m0 4.98v10m0 4.98v10m0 5v9.97m0 5v9.98m0 5v10m0 4.98v10m0 5v9.98m0 5v9.98m0 5v9.98m0 5v9.98m0 5v9.98m0 5v9.98m0 5v10m0 4.98v10m0 4.98v10m0 4.98v10m0 4.98v10m0 4.98v10m0 4.98v10m0 5v9.97m0 5v9.98m0 5v10m0 5v9.98m0 5v9.98m0 5v9.98m0 5v9.98m0 5v9.98m0 5v9.98m0 5v9.98m0 5v10m0 4.98v10m0 4.98v10m0 4.98v10m0 4.98v10m0 4.98v10m0 4.98v10m0 5v9.97m0 5v10m0 5v9.98m0 5v9.98m0 5v9.98m0 5v9.98m0 5v9.98m0 5v9.98m0 5v9.98m0 5v9.98m0 5v10m0 4.98v10m0 4.98v10m0 4.98v10m0 4.98v10m0 4.98v10m0 5v9.97m0 5v10m0 5v9.97m0 5v10m0 4.98v10m0 4.98v10m0 4.98v10m0 5v9.98m0 5v9.98m0 5v9.98m0 5v9.98m0 5v10m0 4.98v10m0 4.98v10m0 4.98v10m0 4.98v10m0 4.98v10m0 5v4.98M420 5519.5v.5M760 240.96v5m0 5v10m0 5v10m0 5v10m0 5v10m0 4.98v10m0 5v10m0 5v10m0 5v10m0 5v9.98m0 5v10m0 5v10m0 5v10m0 5v10m0 5v9.98m0 5v10m0 5v10m0 5v10m0 5v10m0 5v9.98m0 5v10m0 5v10m0 5v10m0 5v10m0 4.98v10m0 5v10m0 5v10m0 5v10m0 5v10m0 4.98v10m0 5v10m0 5v10m0 5v10m0 5v9.98m0 5v10m0 5v10m0 5v10m0 5v10m0 5v9.98m0 5v10m0 5v10m0 5v10m0 5v10m0 5v9.98m0 5v10m0 5v10m0 5v10m0 5v10m0 5v9.98m0 5v10m0 5v10m0 5v10m0 5v10m0 4.98v10m0 5v10m0 5v10m0 5v10m0 5v9.98m0 5v10m0 5v10m0 5v10m0 5v10m0 5v9.98m0 5v10m0 5v10m0 5v10m0 5v10m0 5v9.98m0 5v10m0 5v10m0 5v10m0 5v10m0 5v9.98m0 5v10m0 5v10m0 5v10m0 5v10m0 4.98v10m0 5v10m0 5v10m0 5v10m0 5v10m0 4.98v10m0 5v10m0 5v10m0 5v10m0 5v9.98m0 5v10m0 5v10m0 5v10m0 5v10m0 5v9.98m0 5v10m0 5v10m0 5v10m0 5v10m0 5v9.98m0 5v10m0 5v10m0 5v10m0 5v10m0 4.98v10m0 5v10m0 5v10m0 5v10m0 5v10m0 4.98v10m0 5v10m0 5v10m0 5v10m0 5v9.98m0 5v10m0 5v10m0 5v10m0 5v10m0 5v9.98m0 5v10m0 5v10m0 5v10m0 5v10m0 5v9.98m0 5v10m0 5v10m0 5v10m0 5v10m0 5v9.98m0 5v10m0 5v10m0 5v10m0 5v10m0 4.98v10m0 5v10m0 5v10m0 5v10m0 5v9.98m0 5v10m0 5v10m0 5v10m0 5v10m0 5v9.98m0 5v10m0 5v10m0 5v10m0 5v10m0 5v9.98m0 5v10m0 5v10m0 5v10m0 5v10m0 5v9.98m0 5v10m0 5v10m0 5v10m0 5v10m0 4.98v10m0 5v10m0 5v10m0 5v10m0 5v10m0 4.98v10m0 5v10m0 5v10m0 5v10m0 5v9.98m0 5v10m0 5v10m0 5v10m0 5v10m0 5v9.98m0 5v10m0 5v10m0 5v10m0 5v10m0 5v9.98m0 5v10m0 5v10m0 5v10m0 5v10m0 4.98v10m0 5v10m0 5v10m0 5v10m0 5v10m0 4.98v10m0 5v10m0 5v10m0 5v10m0 5v9.98m0 5v10m0 5v10m0 5v10m0 5v10m0 5v9.98m0 5v10m0 5v10m0 5v10m0 5v10m0 5v9.98m0 5v10m0 5v10m0 5v10m0 5v10m0 4.98v10m0 5v10m0 5v10m0 5v10m0 5v10m0 4.98v10m0 5v10m0 5v10m0 5v10m0 5v9.98m0 5v10m0 5v10m0 5v10m0 5v10m0 5v9.98m0 5v10m0 5v10m0 5v10m0 5v10m0 5v9.98m0 5v10m0 5v10m0 5v10m0 5v10m0 5v9.98m0 5v10m0 5v10m0 5v10m0 5v10m0 4.98v10m0 5v10m0 5v10m0 5v10m0 5v9.98m0 5v10m0 5v10m0 5v10m0 5v10m0 5v9.98m0 5v10m0 5v10m0 5v10m0 5v10m0 5v9.98m0 5v10m0 5v10m0 5v10m0 5v10m0 5v9.98m0 5v10m0 5v10m0 5v10m0 5v10m0 4.98v10m0 5v10m0 5v10m0 5v10m0 5v10m0 4.98v10m0 5v10m0 5v10m0 5v10m0 5v9.98m0 5v10m0 5v10m0 5v10m0 5v10m0 5v9.98m0 5v10m0 5v10m0 5v10m0 5v10m0 5v9.98m0 5v10m0 5v10m0 5v10m0 5v10m0 4.98v10m0 5v10m0 5v10m0 5v10m0 5v10m0 4.98v10m0 5v10m0 5v10m0 5v10m0 5v9.98m0 5v10m0 5v10m0 5v10m0 5v10m0 5v9.98m0 5v10m0 5v10m0 5v10m0 5v10m0 5v9.98m0 5v10m0 5v10m0 5v10m0 5v10m0 5v9.98m0 5v10m0 5v10m0 5v10m0 5v10m0 4.98v10m0 5v10m0 5v10m0 5v10m0 5v9.98m0 5v10m0 5v10m0 5v10m0 5v10m0 5v9.98m0 5v10m0 5v10m0 5v10m0 5v10m0 5v9.98m0 5v10m0 5v10m0 5v10m0 5v10m0 5v9.98m0 5v10m0 5v10m0 5v10m0 5v10m0 4.98v10m0 5v10m0 5v10m0 5v10m0 5v10m0 4.98v10m0 5v10m0 5v10m0 5v10m0 5v9.98m0 5v10m0 5v10m0 5v10m0 5v10m0 5v9.98m0 5v10m0 5v10m0 5v10m0 5v10m0 5v9.98m0 5v5" stroke="#3a414a" fill="none"/><path d="M760.5 240.98h-1v-.52h1z" stroke="#3a414a" stroke-width=".05" fill="#3a414a"/><path d="M760 5519.5v.5M1140 240.96v5m0 5v10m0 5v10m0 5v10m0 5v10m0 4.98v10m0 5v10m0 5v10m0 5v10m0 5v9.98m0 5v10m0 5v10m0 5v10m0 5v10m0 5v9.98m0 5v10m0 5v10m0 5v10m0 5v10m0 5v9.98m0 5v10m0 5v10m0 5v10m0 5v10m0 4.98v10m0 5v10m0 5v10m0 5v10m0 5v10m0 4.98v10m0 5v10m0 5v10m0 5v10m0 5v9.98m0 5v10m0 5v10m0 5v10m0 5v10m0 5v9.98m0 5v10m0 5v10m0 5v10m0 5v10m0 5v9.98m0 5v10m0 5v10m0 5v10m0 5v10m0 5v9.98m0 5v10m0 5v10m0 5v10m0 5v10m0 4.98v10m0 5v10m0 5v10m0 5v10m0 5v9.98m0 5v10m0 5v10m0 5v10m0 5v10m0 5v9.98m0 5v10m0 5v10m0 5v10m0 5v10m0 5v9.98m0 5v10m0 5v10m0 5v10m0 5v10m0 5v9.98m0 5v10m0 5v10m0 5v10m0 5v10m0 4.98v10m0 5v10m0 5v10m0 5v10m0 5v10m0 4.98v10m0 5v10m0 5v10m0 5v10m0 5v9.98m0 5v10m0 5v10m0 5v10m0 5v10m0 5v9.98m0 5v10m0 5v10m0 5v10m0 5v10m0 5v9.98m0 5v10m0 5v10m0 5v10m0 5v10m0 4.98v10m0 5v10m0 5v10m0 5v10m0 5v10m0 4.98v10m0 5v10m0 5v10m0 5v10m0 5v9.98m0 5v10m0 5v10m0 5v10m0 5v10m0 5v9.98m0 5v10m0 5v10m0 5v10m0 5v10m0 5v9.98m0 5v10m0 5v10m0 5v10m0 5v10m0 5v9.98m0 5v10m0 5v10m0 5v10m0 5v10m0 4.98v10m0 5v10m0 5v10m0 5v10m0 5v9.98m0 5v10m0 5v10m0 5v10m0 5v10m0 5v9.98m0 5v10m0 5v10m0 5v10m0 5v10m0 5v9.98m0 5v10m0 5v10m0 5v10m0 5v10m0 5v9.98m0 5v10m0 5v10m0 5v10m0 5v10m0 4.98v10m0 5v10m0 5v10m0 5v10m0 5v10m0 4.98v10m0 5v10m0 5v10m0 5v10m0 5v9.98m0 5v10m0 5v10m0 5v10m0 5v10m0 5v9.98m0 5v10m0 5v10m0 5v10m0 5v10m0 5v9.98m0 5v10m0 5v10m0 5v10m0 5v10m0 4.98v10m0 5v10m0 5v10m0 5v10m0 5v10m0 4.98v10m0 5v10m0 5v10m0 5v10m0 5v9.98m0 5v10m0 5v10m0 5v10m0 5v10m0 5v9.98m0 5v10m0 5v10m0 5v10m0 5v10m0 5v9.98m0 5v10m0 5v10m0 5v10m0 5v10m0 4.98v10m0 5v10m0 5v10m0 5v10m0 5v10m0 4.98v10m0 5v10m0 5v10m0 5v10m0 5v9.98m0 5v10m0 5v10m0 5v10m0 5v10m0 5v9.98m0 5v10m0 5v10m0 5v10m0 5v10m0 5v9.98m0 5v10m0 5v10m0 5v10m0 5v10m0 5v9.98m0 5v10m0 5v10m0 5v10m0 5v10m0 4.98v10m0 5v10m0 5v10m0 5v10m0 5v9.98m0 5v10m0 5v10m0 5v10m0 5v10m0 5v9.98m0 5v10m0 5v10m0 5v10m0 5v10m0 5v9.98m0 5v10m0 5v10m0 5v10m0 5v10m0 5v9.98m0 5v10m0 5v10m0 5v10m0 5v10m0 4.98v10m0 5v10m0 5v10m0 5v10m0 5v10m0 4.98v10m0 5v10m0 5v10m0 5v10m0 5v9.98m0 5v10m0 5v10m0 5v10m0 5v10m0 5v9.98m0 5v10m0 5v10m0 5v10m0 5v10m0 5v9.98m0 5v10m0 5v10m0 5v10m0 5v10m0 4.98v10m0 5v10m0 5v10m0 5v10m0 5v10m0 4.98v10m0 5v10m0 5v10m0 5v10m0 5v9.98m0 5v10m0 5v10m0 5v10m0 5v10m0 5v9.98m0 5v10m0 5v10m0 5v10m0 5v10m0 5v9.98m0 5v10m0 5v10m0 5v10m0 5v10m0 5v9.98m0 5v10m0 5v10m0 5v10m0 5v10m0 4.98v10m0 5v10m0 5v10m0 5v10m0 5v9.98m0 5v10m0 5v10m0 5v10m0 5v10m0 5v9.98m0 5v10m0 5v10m0 5v10m0 5v10m0 5v9.98m0 5v10m0 5v10m0 5v10m0 5v10m0 5v9.98m0 5v10m0 5v10m0 5v10m0 5v10m0 4.98v10m0 5v10m0 5v10m0 5v10m0 5v10m0 4.98v10m0 5v10m0 5v10m0 5v10m0 5v9.98m0 5v10m0 5v10m0 5v10m0 5v10m0 5v9.98m0 5v10m0 5v10m0 5v10m0 5v10m0 5v9.98m0 5v5" stroke="#3a414a" fill="none"/><path d="M1140.5 240.98h-1v-.52h1z" stroke="#3a414a" stroke-width=".05" fill="#3a414a"/><path d="M1140 5519.5v.5M1520 240.96v5m0 5v10m0 5v10m0 5v10m0 5v10m0 4.98v10m0 5v10m0 5v10m0 5v10m0 5v9.98m0 5v10m0 5v10m0 5v10m0 5v10m0 5v9.98m0 5v10m0 5v10m0 5v10m0 5v10m0 5v9.98m0 5v10m0 5v10m0 5v10m0 5v10m0 4.98v10m0 5v10m0 5v10m0 5v10m0 5v10m0 4.98v10m0 5v10m0 5v10m0 5v10m0 5v9.98m0 5v10m0 5v10m0 5v10m0 5v10m0 5v9.98m0 5v10m0 5v10m0 5v10m0 5v10m0 5v9.98m0 5v10m0 5v10m0 5v10m0 5v10m0 5v9.98m0 5v10m0 5v10m0 5v10m0 5v10m0 4.98v10m0 5v10m0 5v10m0 5v10m0 5v9.98m0 5v10m0 5v10m0 5v10m0 5v10m0 5v9.98m0 5v10m0 5v10m0 5v10m0 5v10m0 5v9.98m0 5v10m0 5v10m0 5v10m0 5v10m0 5v9.98m0 5v10m0 5v10m0 5v10m0 5v10m0 4.98v10m0 5v10m0 5v10m0 5v10m0 5v10m0 4.98v10m0 5v10m0 5v10m0 5v10m0 5v9.98m0 5v10m0 5v10m0 5v10m0 5v10m0 5v9.98m0 5v10m0 5v10m0 5v10m0 5v10m0 5v9.98m0 5v10m0 5v10m0 5v10m0 5v10m0 4.98v10m0 5v10m0 5v10m0 5v10m0 5v10m0 4.98v10m0 5v10m0 5v10m0 5v10m0 5v9.98m0 5v10m0 5v10m0 5v10m0 5v10m0 5v9.98m0 5v10m0 5v10m0 5v10m0 5v10m0 5v9.98m0 5v10m0 5v10m0 5v10m0 5v10m0 5v9.98m0 5v10m0 5v10m0 5v10m0 5v10m0 4.98v10m0 5v10m0 5v10m0 5v10m0 5v9.98m0 5v10m0 5v10m0 5v10m0 5v10m0 5v9.98m0 5v10m0 5v10m0 5v10m0 5v10m0 5v9.98m0 5v10m0 5v10m0 5v10m0 5v10m0 5v9.98m0 5v10m0 5v10m0 5v10m0 5v10m0 4.98v10m0 5v10m0 5v10m0 5v10m0 5v10m0 4.98v10m0 5v10m0 5v10m0 5v10m0 5v9.98m0 5v10m0 5v10m0 5v10m0 5v10m0 5v9.98m0 5v10m0 5v10m0 5v10m0 5v10m0 5v9.98m0 5v10m0 5v10m0 5v10m0 5v10m0 4.98v10m0 5v10m0 5v10m0 5v10m0 5v10m0 4.98v10m0 5v10m0 5v10m0 5v10m0 5v9.98m0 5v10m0 5v10m0 5v10m0 5v10m0 5v9.98m0 5v10m0 5v10m0 5v10m0 5v10m0 5v9.98m0 5v10m0 5v10m0 5v10m0 5v10m0 4.98v10m0 5v10m0 5v10m0 5v10m0 5v10m0 4.98v10m0 5v10m0 5v10m0 5v10m0 5v9.98m0 5v10m0 5v10m0 5v10m0 5v10m0 5v9.98m0 5v10m0 5v10m0 5v10m0 5v10m0 5v9.98m0 5v10m0 5v10m0 5v10m0 5v10m0 5v9.98m0 5v10m0 5v10m0 5v10m0 5v10m0 4.98v10m0 5v10m0 5v10m0 5v10m0 5v9.98m0 5v10m0 5v10m0 5v10m0 5v10m0 5v9.98m0 5v10m0 5v10m0 5v10m0 5v10m0 5v9.98m0 5v10m0 5v10m0 5v10m0 5v10m0 5v9.98m0 5v10m0 5v10m0 5v10m0 5v10m0 4.98v10m0 5v10m0 5v10m0 5v10m0 5v10m0 4.98v10m0 5v10m0 5v10m0 5v10m0 5v9.98m0 5v10m0 5v10m0 5v10m0 5v10m0 5v9.98m0 5v10m0 5v10m0 5v10m0 5v10m0 5v9.98m0 5v10m0 5v10m0 5v10m0 5v10m0 4.98v10m0 5v10m0 5v10m0 5v10m0 5v10m0 4.98v10m0 5v10m0 5v10m0 5v10m0 5v9.98m0 5v10m0 5v10m0 5v10m0 5v10m0 5v9.98m0 5v10m0 5v10m0 5v10m0 5v10m0 5v9.98m0 5v10m0 5v10m0 5v10m0 5v10m0 5v9.98m0 5v10m0 5v10m0 5v10m0 5v10m0 4.98v10m0 5v10m0 5v10m0 5v10m0 5v9.98m0 5v10m0 5v10m0 5v10m0 5v10m0 5v9.98m0 5v10m0 5v10m0 5v10m0 5v10m0 5v9.98m0 5v10m0 5v10m0 5v10m0 5v10m0 5v9.98m0 5v10m0 5v10m0 5v10m0 5v10m0 4.98v10m0 5v10m0 5v10m0 5v10m0 5v10m0 4.98v10m0 5v10m0 5v10m0 5v10m0 5v9.98m0 5v10m0 5v10m0 5v10m0 5v10m0 5v9.98m0 5v10m0 5v10m0 5v10m0 5v10m0 5v9.98m0 5v5" stroke="#3a414a" fill="none"/><path d="M1520.5 240.98h-1v-.52h1z" stroke="#3a414a" stroke-width=".05" fill="#3a414a"/><path d="M1520 5519.5v.5" stroke="#3a414a" fill="none"/><path d="M519.06 300.5H420.5v-1h98.56zm224.56 0h-82.68v-1h82.68zM420.5 300.5h-.5v-1h.5z" stroke="#3a414a" stroke-width=".05" fill="#3a414a"/><path d="M758.38 300l-14.26 4.63v-9.27z" fill="#3a414a"/><path d="M760 300l-16.38 5.32v-10.64zm-15.38 3.95l12.14-3.95-12.14-3.95z" stroke="#3a414a" stroke-width=".05" fill="#3a414a"/><use xlink:href="#l" transform="matrix(1,0,0,1,519.0617568623857,289.33233333333334) translate(0 14.222222222222223)"/><use xlink:href="#m" transform="matrix(1,0,0,1,519.0617568623857,289.33233333333334) translate(51.25925925925927 14.222222222222223)"/><path d="M791.43 340.5H760.5v-1h30.93zm332.2 0h-15.06v-1h15.05zM760.5 340.5h-.5v-1h.5z" stroke="#3a414a" stroke-width=".05" fill="#3a414a"/><path d="M1138.38 340l-14.26 4.64v-9.28z" fill="#3a414a"/><path d="M1140 340l-16.38 5.32v-10.64zm-15.38 3.95l12.14-3.95-12.14-3.95z" stroke="#3a414a" stroke-width=".05" fill="#3a414a"/><use xlink:href="#n" transform="matrix(1,0,0,1,791.4320987654321,329.3333333333333) translate(0 14.222222222222223)"/><path d="M1227 460.5h-86.5v-1h86.5zm276.62 0h-70.6v-1h70.6zM1140.5 460.5h-.5v-1h.5z" stroke="#3a414a" stroke-width=".05" fill="#3a414a"/><path d="M1518.38 460l-14.26 4.64v-9.28z" fill="#3a414a"/><path d="M1520 460l-16.38 5.32v-10.64zm-15.38 3.95l12.14-3.95-12.14-3.95z" stroke="#3a414a" stroke-width=".05" fill="#3a414a"/><use xlink:href="#o" transform="matrix(1,0,0,1,1226.9876543209875,449.3333333333333) translate(0 14.222222222222223)"/><use xlink:href="#p" transform="matrix(1,0,0,1,1226.9876543209875,449.3333333333333) translate(149.87654320987656 14.222222222222223)"/><path d="M1519.5 500.5h-4.86v-1h4.86zm-9.72 0h-9.72v-1h9.72zm-14.57 0h-9.7v-1h9.7zm-14.57 0h-9.72v-1h9.73zm-14.58 0h-9.72v-1h9.72zm-14.58 0h-9.7v-1h9.7zm-14.57 0h-9.72v-1h9.72zm-14.58 0h-9.72v-1h9.72zm-174.3 0h-9.65v-1h9.65zm-14.47 0h-9.65v-1h9.65zm-14.47 0h-9.65v-1h9.65zm-14.47 0h-9.63v-1h9.64zm-14.46 0h-9.64v-1h9.64zm-14.46 0h-9.65v-1h9.65zm-14.47 0h-4.82v-1h4.83zm246.54 0h-.38v-1h.38zM1520 500.5h-.5v-1h.5z" stroke="#3a414a" stroke-width=".05" fill="#3a414a"/><path d="M1155.88 504.64l-14.26-4.64 14.26-4.64z" fill="#3a414a"/><path d="M1156.38 505.32L1140 500l16.38-5.32zm-13.14-5.32l12.14 3.95v-7.9z" stroke="#3a414a" stroke-width=".05" fill="#3a414a"/><use xlink:href="#q" transform="matrix(1,0,0,1,1252.641975308642,489.3333333333333) translate(0 14.222222222222223)"/><use xlink:href="#r" transform="matrix(1,0,0,1,1252.641975308642,489.3333333333333) translate(96.64197530864197 14.222222222222223)"/><path d="M1139.5 540.5h-4.86v-1h4.86zm-9.72 0h-9.72v-1h9.72zm-14.57 0h-9.7v-1h9.7zm-14.57 0h-9.72v-1h9.73zm-14.58 0h-9.72v-1h9.72zm-14.58 0h-9.7v-1h9.7zm-14.57 0h-9.72v-1h9.72zm-14.58 0h-9.72v-1h9.72zm-14.58 0h-9.7v-1h9.7zm-14.57 0h-9.72v-1h9.72zm-14.58 0h-9.73v-1h9.72zm-87.18 0h-9.65v-1h9.65zm-14.47 0h-9.64v-1h9.65zm-14.47 0h-9.64v-1h9.64zm-14.46 0h-9.65v-1h9.65zm-14.47 0h-9.65v-1h9.65zm-14.47 0h-9.65v-1h9.65zm-14.47 0h-9.63v-1h9.64zm-14.46 0h-9.64v-1h9.64zm-14.46 0h-9.65v-1h9.65zm-14.47 0h-4.82v-1h4.83zM1140 540.5h-.5v-1h.5z" stroke="#3a414a" stroke-width=".05" fill="#3a414a"/><path d="M775.88 544.64L761.62 540l14.26-4.64z" fill="#3a414a"/><path d="M776.38 545.32L760 540l16.38-5.32zM763.24 540l12.14 3.95v-7.9z" stroke="#3a414a" stroke-width=".05" fill="#3a414a"/><use xlink:href="#s" transform="matrix(1,0,0,1,911.5802469135803,529.3333333333334) translate(0 14.222222222222223)"/><use xlink:href="#t" transform="matrix(1,0,0,1,911.5802469135803,529.3333333333334) translate(56.14814814814816 14.222222222222223)"/><path d="M759.5 600.5h-5.14v-1h5.14zm-10.27 0h-10.28v-1h10.28zm-15.4 0h-10.28v-1h10.27zm-15.42 0h-10.26v-1h10.27zm-15.4 0h-10.27v-1H703zm-15.4 0H677.3v-1h10.27zm-15.42 0h-8.25v-1h8.25zm-156.1 0h-8v-1h8zm-13.13-1v1H492.7v-1zm-15.36 1h-10.25v-1h10.24zm-15.37 0H462v-1h10.23zm-15.36-1v1h-10.25v-1zm-15.37 1h-5.12v-1h5.12zM760 600.5h-.5v-1h.5z" stroke="#3a414a" stroke-width=".05" fill="#3a414a"/><path d="M435.88 604.63L421.62 600l14.26-4.64z" fill="#3a414a"/><path d="M436.38 605.32L420 600l16.38-5.32zM423.24 600l12.14 3.95v-7.9z" stroke="#3a414a" stroke-width=".05" fill="#3a414a"/><use xlink:href="#s" transform="matrix(1,0,0,1,516.0741025413979,589.3328333333334) translate(0 14.222222222222223)"/><use xlink:href="#u" transform="matrix(1,0,0,1,516.0741025413979,589.3328333333334) translate(56.14814814814816 14.222222222222223)"/><path d="M1139.5 760.5h-5.04v-1h5.04zm-10.1 0h-10.07v-1h10.08zm-15.12 0h-10.08v-1h10.08zm-15.13 0h-10.08v-1h10.08zm-15.13 0h-10.08v-1h10.08zm-15.13 0h-10.1v-1h10.1zm-15.14 0h-10.08v-1h10.08zm-15.13 0h-10.08v-1h10.08zm-15.13 0h-10.08v-1h10.08zm-122.3 0h-8.82v-1h8.83zm-13.86 0h-10.1v-1h10.1zm-15.13 0h-10.08v-1h10.1zm-15.12 0h-10.1v-1h10.1zm-15.13 0h-10.1v-1h10.1zm-15.13 0h-10.1v-1h10.1zm-15.13 0h-10.1v-1h10.1zm-15.14 0h-10.1v-1h10.1zm-15.13 0h-5.05v-1h5.05zm226.94 0h-9.58v-1h9.57zM1140 760.5h-.5v-1h.5z" stroke="#3a414a" stroke-width=".05" fill="#3a414a"/><path d="M775.88 764.64L761.62 760l14.26-4.64z" fill="#3a414a"/><path d="M776.38 765.32L760 760l16.38-5.32zM763.24 760l12.14 3.95v-7.9z" stroke="#3a414a" stroke-width=".05" fill="#3a414a"/><use xlink:href="#s" transform="matrix(1,0,0,1,901.2098765432098,749.3333333333334) translate(0 14.222222222222223)"/><use xlink:href="#v" transform="matrix(1,0,0,1,901.2098765432098,749.3333333333334) translate(56.14814814814816 14.222222222222223)"/><path d="M759.5 840.5h-5.14v-1h5.14zm-10.27 0h-10.28v-1h10.28zm-15.4 0h-10.28v-1h10.27zm-15.42 0h-10.26v-1h10.27zm-15.4 0h-10.27v-1H703zm-15.4 0H677.3v-1h10.27zm-184.65-1v1H492.7v-1zm-15.36 1h-10.25v-1h10.24zm-15.37 0H462v-1h10.23zm-15.36-1v1h-10.25v-1zm-15.37 1h-5.12v-1h5.12zM760 840.5h-.5v-1h.5z" stroke="#3a414a" stroke-width=".05" fill="#3a414a"/><path d="M435.88 844.63L421.62 840l14.26-4.64z" fill="#3a414a"/><path d="M436.38 845.32L420 840l16.38-5.32zM423.24 840l12.14 3.95v-7.9z" stroke="#3a414a" stroke-width=".05" fill="#3a414a"/><use xlink:href="#w" transform="matrix(1,0,0,1,507.20990501053376,829.3328333333335) translate(0 14.222222222222223)"/><use xlink:href="#x" transform="matrix(1,0,0,1,507.20990501053376,829.3328333333335) translate(70.02469135802471 14.222222222222223)"/><path d="M524.94 1027.86H420.5v-1h104.44zm218.68 0h-88.56v-1h88.56zM420.5 1027.86h-.5v-1h.5z" stroke="#3a414a" stroke-width=".05" fill="#3a414a"/><path d="M758.38 1027.36l-14.26 4.64v-9.27z" fill="#3a414a"/><path d="M760 1027.36l-16.38 5.33v-10.66zm-15.38 3.95l12.14-3.94-12.14-3.94z" stroke="#3a414a" stroke-width=".05" fill="#3a414a"/><use xlink:href="#y" transform="matrix(1,0,0,1,524.9383000722621,1016.6980586278247) translate(0 14.222222222222223)"/><use xlink:href="#m" transform="matrix(1,0,0,1,524.9383000722621,1016.6980586278247) translate(39.50617283950618 14.222222222222223)"/><path d="M790.84 1080.5H760.5v-1h30.34zm332.78 0h-14.46v-1h14.46zM760.5 1080.5h-.5v-1h.5z" stroke="#3a414a" stroke-width=".05" fill="#3a414a"/><path d="M1138.38 1080l-14.26 4.64v-9.28z" fill="#3a414a"/><path d="M1140 1080l-16.38 5.32v-10.64zm-15.38 3.95l12.14-3.95-12.14-3.95z" stroke="#3a414a" stroke-width=".05" fill="#3a414a"/><use xlink:href="#z" transform="matrix(1,0,0,1,790.8395061728395,1069.3333333333333) translate(0 14.222222222222223)"/><path d="M1221.56 1180.5h-81.06v-1h81.06zm282.06 0h-65.18v-1h65.18zM1140.5 1180.5h-.5v-1h.5z" stroke="#3a414a" stroke-width=".05" fill="#3a414a"/><path d="M1518.38 1180l-14.26 4.64v-9.28z" fill="#3a414a"/><path d="M1520 1180l-16.38 5.32v-10.64zm-15.38 3.95l12.14-3.95-12.14-3.95z" stroke="#3a414a" stroke-width=".05" fill="#3a414a"/><use xlink:href="#A" transform="matrix(1,0,0,1,1221.5555555555557,1169.3333333333333) translate(0 14.222222222222223)"/><use xlink:href="#p" transform="matrix(1,0,0,1,1221.5555555555557,1169.3333333333333) translate(160.74074074074076 14.222222222222223)"/><path d="M1519.5 1240.5h-5.04v-1h5.04zm-10.1 0h-10.07v-1h10.08zm-15.12 0h-10.08v-1h10.08zm-15.13 0h-10.08v-1h10.08zm-15.13 0h-10.08v-1h10.08zm-15.13 0h-10.1v-1h10.1zm-15.14 0h-10.08v-1h10.08zm-191.07 0h-.58v-1h.57zm-5.62 0h-10.1v-1h10.1zm-15.13 0h-10.1v-1h10.1zm-15.13 0h-10.1v-1h10.1zm-15.13 0h-10.1v-1h10.1zm-15.14 0h-10.1v-1h10.1zm-15.13 0h-5.05v-1h5.05zm257.2 0h-1.32v-1h1.33zM1520 1240.5h-.5v-1h.5z" stroke="#3a414a" stroke-width=".05" fill="#3a414a"/><path d="M1155.88 1244.64l-14.26-4.64 14.26-4.64z" fill="#3a414a"/><path d="M1156.38 1245.32L1140 1240l16.38-5.32zm-13.14-5.32l12.14 3.95v-7.9z" stroke="#3a414a" stroke-width=".05" fill="#3a414a"/><use xlink:href="#B" transform="matrix(1,0,0,1,1242.6913580246915,1229.3333333333333) translate(0 14.222222222222223)"/><use xlink:href="#C" transform="matrix(1,0,0,1,1242.6913580246915,1229.3333333333333) translate(68.09876543209877 14.222222222222223)"/><path d="M1139.5 1300.5h-5.04v-1h5.04zm-10.1 0h-10.07v-1h10.08zm-15.12 0h-10.08v-1h10.08zm-15.13 0h-10.08v-1h10.08zm-15.13 0h-10.08v-1h10.08zm-15.13 0h-10.1v-1h10.1zm-15.14 0h-10.08v-1h10.08zm-15.13 0h-10.08v-1h10.08zm-154.1 0h-7.28v-1h7.27zm-12.32 0h-10.08v-1h10.1zm-15.12 0h-10.1v-1h10.1zm-15.13 0h-10.1v-1h10.1zm-15.13 0h-10.1v-1h10.1zm-15.13 0h-10.1v-1h10.1zm-15.14 0h-10.1v-1h10.1zm-15.13 0h-5.05v-1h5.05zm242.07 0h-8.02v-1h8.02zM1140 1300.5h-.5v-1h.5z" stroke="#3a414a" stroke-width=".05" fill="#3a414a"/><path d="M775.88 1304.64l-14.26-4.64 14.26-4.64z" fill="#3a414a"/><path d="M776.38 1305.32L760 1300l16.38-5.32zm-13.14-5.32l12.14 3.95v-7.9z" stroke="#3a414a" stroke-width=".05" fill="#3a414a"/><use xlink:href="#D" transform="matrix(1,0,0,1,884.5185185185185,1289.3333333333333) translate(0 14.222222222222223)"/><use xlink:href="#E" transform="matrix(1,0,0,1,884.5185185185185,1289.3333333333333) translate(36.44444444444445 14.222222222222223)"/><path d="M759.5 1340.5h-4.9v-1h4.9zm-9.83 0h-9.82v-1h9.82zm-14.73 0h-9.83v-1h9.84zm-14.74 0h-9.83v-1h9.83zm-14.74 0h-9.82v-1h9.82zm-14.74 0h-9.82v-1h9.82zm-14.74 0h-9.82v-1h9.82zm-14.73 0h-9.83v-1h9.83zm-14.74 0h-9.82v-1h9.83zm-14.73 0h-9.83v-1h9.83zm-14.74 0h-9.82v-1h9.83zm-14.74 0h-9.83v-1h9.82zm-14.74 0h-9.83v-1h9.83zm-14.74 0H563v-1h9.82zm-14.74 0h-9.83v-1h9.83zm-14.74 0h-9.82v-1h9.82zm-14.74 0h-9.82v-1h9.82zm-14.73 0h-9.83v-1h9.83zm-14.74 0h-9.83v-1h9.83zm-14.74 0h-9.84v-1h9.83zm-14.75 0h-9.82v-1h9.82zm-19.65-1h4.9v1h-9.8v-1zm-9.8 1h-9.77v-1h9.78zm-14.67-1v1h-9.8v-1zm-14.68 1h-9.8v-1h9.8zm-14.68 0h-9.8v-1h9.8zm-14.68 0h-9.8v-1h9.8zm-14.7 0h-9.78v-1h9.8zm-179.32 0h-6.63v-1h6.63zm-11.52 0h-9.8v-1h9.8zm-14.68 0h-4.9v-1h4.9zM760 1340.5h-.5v-1h.5z" stroke="#3a414a" stroke-width=".05" fill="#3a414a"/><path d="M155.88 1344.63l-14.26-4.63 14.26-4.64z" fill="#3a414a"/><path d="M156.38 1345.32L140 1340l16.38-5.32zm-13.14-5.32l12.14 3.95v-7.9z" stroke="#3a414a" stroke-width=".05" fill="#3a414a"/><use xlink:href="#w" transform="matrix(1,0,0,1,187.47993468625475,1329.332333333333) translate(0 14.222222222222223)"/><use xlink:href="#x" transform="matrix(1,0,0,1,187.47993468625475,1329.332333333333) translate(70.02469135802471 14.222222222222223)"/><path d="M159.75 79.75c0 10.9-8.84 19.75-19.75 19.75-10.9 0-19.75-8.84-19.75-19.75C120.25 68.85 129.1 60 140 60c10.9 0 19.75 8.84 19.75 19.75z" stroke="#3a414a" fill="#fff"/><path d="M140 99.5v49.3a20.7 20.7 0 0 0 3.2 11.07L180 218m-40-63.2L100 218m0-98.75h80" stroke="#3a414a" fill="none"/><path d="M100 66a6 6 0 0 1 6-6h68a6 6 0 0 1 6 6v168a6 6 0 0 1-6 6h-68a6 6 0 0 1-6-6z" fill="none"/><use xlink:href="#F" transform="matrix(1,0,0,1,20,218) translate(67.62345679012344 17.77777777777778)"/><path d="M140 156.23v5m0 5v10m0 5v10m0 5v10m0 5v9.98m0 5v10m0 5v10m0 5v10m0 5v10m0 5v10m0 5v9.98m0 5v10m0 5v10m0 5v10m0 5v10m0 4.98v10m0 5v10m0 5v10m0 5v10m0 4.98v10m0 5v10m0 5v10m0 5v10m0 5v9.98m0 5v10m0 5v10m0 5v10m0 5v9.98m0 5v10m0 5v10m0 5v10m0 5v9.98m0 5v10m0 5v10m0 5v10m0 5v9.98m0 5v10m0 5v10m0 5v10m0 5v10m0 4.98v10m0 5v10m0 5v10m0 5v10m0 5V821m0 5v10m0 5v10m0 5v10m0 5V881m0 5v10m0 5v10m0 5v10m0 5v9.98m0 5v10m0 5v10m0 5v10m0 5v9.98m0 5v10m0 5v10m0 5v10m0 5v10m0 4.98v10m0 5v10m0 5v10m0 5v10m0 4.98v10m0 5v10m0 5v10m0 5v10m0 5v9.98m0 5v10m0 5v10m0 5v10m0 5v9.98m0 5v10m0 5v10m0 5v10m0 5v9.98m0 5v10m0 5v10m0 5v10m0 5v10m0 4.98v10m0 5v10m0 5v10m0 5v10m0 4.98v10m0 5v10m0 5v10m0 5v10m0 5v9.98m0 5v10m0 5v10m0 5v10m0 5v9.98m0 5v10m0 5v10m0 5v10m0 5v9.98m0 5v10m0 5v10m0 5v10m0 5v9.98m0 5v10m0 5v10m0 5v10m0 5v10m0 4.98v10m0 5v10m0 5v10m0 5v10m0 4.98v10m0 5v10m0 5v10m0 5v10m0 5v9.98m0 5v10m0 5v10m0 5v10m0 5v9.98m0 5v10m0 5v10m0 5v10m0 5v9.98m0 5v10m0 5v10m0 5v10m0 5v10m0 4.98v10m0 5v10m0 5v10m0 5v10m0 4.98v10m0 5v10m0 5v10m0 5v10m0 5v9.98m0 5v10m0 5v10m0 5v10m0 5v9.98m0 5v10m0 5v10m0 5v10m0 5v9.98m0 5v10m0 5v10m0 5v10m0 5v9.98m0 5v10m0 5v10m0 5v10m0 5v10m0 4.98v10m0 5v10m0 5v10m0 5v10m0 5v9.98m0 5v10m0 5v10m0 5v10m0 5v9.98m0 5v10m0 5v10m0 5v10m0 5v9.98m0 5v10m0 5v10m0 5v10m0 5v9.98m0 5v10m0 5v10m0 5v10m0 5v10m0 4.98v10m0 5v10m0 5v10m0 5v10m0 4.98v10m0 5v10m0 5v10m0 5v10m0 5v9.98m0 5v10m0 5v10m0 5v10m0 5v9.98m0 5v10m0 5v10m0 5v10m0 5v9.98m0 5v10m0 5v10m0 5v10m0 5v10m0 4.98v10m0 5v10m0 5v10m0 5v10m0 4.98v10m0 5v10m0 5v10m0 5v10m0 5v9.98m0 5v10m0 5v10m0 5v10m0 5v9.98m0 5v10m0 5v10m0 5v10m0 5v9.98m0 5v10m0 5v10m0 5v10m0 5v9.98m0 5v10m0 5v10m0 5v10m0 5v10m0 4.98v10m0 5v10m0 5v10m0 5v10m0 4.98v10m0 5v10m0 5v10m0 5v10m0 5v9.98m0 5v10m0 5v10m0 5v10m0 5v9.98m0 5v10m0 5v10m0 5v10m0 5v9.98m0 5v10m0 5v10m0 5v10m0 5v10m0 4.98v10m0 5v10m0 5v10m0 5v10m0 4.98v10m0 5v10m0 5v10m0 5v10m0 5v9.98m0 5v10m0 5v10m0 5v10m0 5v9.98m0 5v10m0 5v10m0 5v10m0 5v9.98m0 5v10m0 5v10m0 5v10m0 5v9.98m0 5v10m0 5v10m0 5v10m0 5v10m0 4.98v10m0 5v10m0 5v10m0 5v10m0 5v9.98m0 5v10m0 5v10m0 5v10m0 5v9.98m0 5v10m0 5v10m0 5v10m0 5v9.98m0 5v10m0 5v10m0 5v10m0 5v9.98m0 5v10m0 5v10m0 5v10m0 5v10m0 4.98v10m0 5v10m0 5v10m0 5v10m0 4.98v10m0 5v10m0 5v10m0 5v10m0 5v9.98m0 5v10m0 5v10m0 5v10m0 5v9.98m0 5v10m0 5v10m0 5v10m0 5v9.98m0 5v10m0 5v10m0 5v10m0 5v10m0 4.98v10m0 5v10m0 5v10m0 5v10m0 4.98v10m0 5v10m0 5v10m0 5v10m0 5v9.98m0 5v10m0 5v10m0 5v10m0 5v9.98m0 5v10m0 5v10m0 5v10m0 5v9.98m0 5v10m0 5v10m0 5v10m0 5v9.98m0 5v10m0 5v10m0 5v10m0 5v10m0 4.98v10m0 5v10m0 5v10m0 5v10m0 4.98v10m0 5v10m0 5v10m0 5v10m0 5v9.98m0 5v10m0 5v10m0 5v10m0 5v9.98m0 5v10m0 5v10m0 5v10m0 5v9.98m0 5v10m0 5v10m0 5v10m0 5v10m0 4.98v10m0 5v10m0 5v10m0 5v10m0 4.98v10m0 5v10m0 5v10m0 5v10m0 5v9.98m0 5v5M140 5599.5v.5" stroke="#3a414a" fill="none"/><path d="M1139.5 1480.5h-5.04v-1h5.04zm-10.1 0h-10.07v-1h10.08zm-15.12 0h-10.08v-1h10.08zm-15.13 0h-10.08v-1h10.08zm-15.13 0h-10.08v-1h10.08zm-15.13 0h-10.1v-1h10.1zm-15.14 0h-10.08v-1h10.08zm-15.13 0h-10.08v-1h10.08zm-15.13 0h-10.08v-1h10.08zm-122.3 0h-8.82v-1h8.83zm-13.86 0h-10.1v-1h10.1zm-15.13 0h-10.08v-1h10.1zm-15.12 0h-10.1v-1h10.1zm-15.13 0h-10.1v-1h10.1zm-15.13 0h-10.1v-1h10.1zm-15.13 0h-10.1v-1h10.1zm-15.14 0h-10.1v-1h10.1zm-15.13 0h-5.05v-1h5.05zm226.94 0h-9.58v-1h9.57zM1140 1480.5h-.5v-1h.5z" stroke="#3a414a" stroke-width=".05" fill="#3a414a"/><path d="M775.88 1484.64l-14.26-4.64 14.26-4.64z" fill="#3a414a"/><path d="M776.38 1485.32L760 1480l16.38-5.32zm-13.14-5.32l12.14 3.95v-7.9z" stroke="#3a414a" stroke-width=".05" fill="#3a414a"/><use xlink:href="#s" transform="matrix(1,0,0,1,901.2098765432098,1469.3333333333335) translate(0 14.222222222222223)"/><use xlink:href="#v" transform="matrix(1,0,0,1,901.2098765432098,1469.3333333333335) translate(56.14814814814816 14.222222222222223)"/><path d="M759.5 1600.5h-5.14v-1h5.14zm-10.27 0h-10.28v-1h10.28zm-15.4 0h-10.28v-1h10.27zm-15.42 0h-10.26v-1h10.27zm-15.4 0h-10.27v-1H703zm-15.4 0H677.3v-1h10.27zm-184.65-1v1H492.7v-1zm-15.36 1h-10.25v-1h10.24zm-15.37 0H462v-1h10.23zm-15.36-1v1h-10.25v-1zm-15.37 1h-5.12v-1h5.12zM760 1600.5h-.5v-1h.5z" stroke="#3a414a" stroke-width=".05" fill="#3a414a"/><path d="M435.88 1604.63l-14.26-4.63 14.26-4.64z" fill="#3a414a"/><path d="M436.38 1605.32L420 1600l16.38-5.32zm-13.14-5.32l12.14 3.95v-7.9z" stroke="#3a414a" stroke-width=".05" fill="#3a414a"/><use xlink:href="#w" transform="matrix(1,0,0,1,507.20990501053376,1589.3328333333334) translate(0 14.222222222222223)"/><use xlink:href="#x" transform="matrix(1,0,0,1,507.20990501053376,1589.3328333333334) translate(70.02469135802471 14.222222222222223)"/><path d="M514.62 1820.5H420.5v-1h94.12zm229 0h-78.24v-1h78.24zM420.5 1820.5h-.5v-1h.5z" stroke="#3a414a" stroke-width=".05" fill="#3a414a"/><path d="M758.38 1820l-14.26 4.63v-9.27z" fill="#3a414a"/><path d="M760 1820l-16.38 5.32v-10.64zm-15.38 3.95l12.14-3.95-12.14-3.95z" stroke="#3a414a" stroke-width=".05" fill="#3a414a"/><use xlink:href="#G" transform="matrix(1,0,0,1,514.6173124179412,1809.3323333333333) translate(0 14.222222222222223)"/><use xlink:href="#H" transform="matrix(1,0,0,1,514.6173124179412,1809.3323333333333) translate(56.19753086419754 14.222222222222223)"/><path d="M851 1880.5h-90.5v-1H851zm272.62 0H1049v-1h74.62zM760.5 1880.5h-.5v-1h.5z" stroke="#3a414a" stroke-width=".05" fill="#3a414a"/><path d="M1138.38 1880l-14.26 4.64v-9.28z" fill="#3a414a"/><path d="M1140 1880l-16.38 5.32v-10.64zm-15.38 3.95l12.14-3.95-12.14-3.95z" stroke="#3a414a" stroke-width=".05" fill="#3a414a"/><use xlink:href="#I" transform="matrix(1,0,0,1,851.0123456790124,1869.3333333333333) translate(0 14.222222222222223)"/><use xlink:href="#p" transform="matrix(1,0,0,1,851.0123456790124,1869.3333333333333) translate(141.82716049382717 14.222222222222223)"/><path d="M1267.4 1960.5h-126.9v-1h126.9zm236.22 0H1392.6v-1h111.02zM1140.5 1960.5h-.5v-1h.5z" stroke="#3a414a" stroke-width=".05" fill="#3a414a"/><path d="M1518.38 1960l-14.26 4.64v-9.28z" fill="#3a414a"/><path d="M1520 1960l-16.38 5.32v-10.64zm-15.38 3.95l12.14-3.95-12.14-3.95z" stroke="#3a414a" stroke-width=".05" fill="#3a414a"/><use xlink:href="#J" transform="matrix(1,0,0,1,1267.4074074074074,1949.3333333333333) translate(0 14.222222222222223)"/><path d="M1519.5 2020.5h-4.86v-1h4.86zm-9.72 0h-9.72v-1h9.72zm-14.57 0h-9.7v-1h9.7zm-14.57 0h-9.72v-1h9.73zm-14.58 0h-9.72v-1h9.72zm-14.58 0h-9.7v-1h9.7zm-14.57 0h-9.72v-1h9.72zm-14.58 0h-9.72v-1h9.72zm-174.3 0h-9.65v-1h9.65zm-14.47 0h-9.65v-1h9.65zm-14.47 0h-9.65v-1h9.65zm-14.47 0h-9.63v-1h9.64zm-14.46 0h-9.64v-1h9.64zm-14.46 0h-9.65v-1h9.65zm-14.47 0h-4.82v-1h4.83zM1520 2020.5h-.5v-1h.5z" stroke="#3a414a" stroke-width=".05" fill="#3a414a"/><path d="M1155.88 2024.64l-14.26-4.64 14.26-4.64z" fill="#3a414a"/><path d="M1156.38 2025.32L1140 2020l16.38-5.32zm-13.14-5.32l12.14 3.95v-7.9z" stroke="#3a414a" stroke-width=".05" fill="#3a414a"/><use xlink:href="#B" transform="matrix(1,0,0,1,1250.0987654320988,2009.3333333333337) translate(0 14.222222222222223)"/><use xlink:href="#u" transform="matrix(1,0,0,1,1250.0987654320988,2009.3333333333337) translate(68.09876543209877 14.222222222222223)"/><path d="M1139.5 2060.5h-5.04v-1h5.04zm-10.1 0h-10.07v-1h10.08zm-15.12 0h-10.08v-1h10.08zm-15.13 0h-10.08v-1h10.08zm-15.13 0h-10.08v-1h10.08zm-15.13 0h-10.1v-1h10.1zm-15.14 0h-10.08v-1h10.08zm-15.13 0h-10.08v-1h10.08zm-154.1 0h-7.28v-1h7.27zm-12.32 0h-10.08v-1h10.1zm-15.12 0h-10.1v-1h10.1zm-15.13 0h-10.1v-1h10.1zm-15.13 0h-10.1v-1h10.1zm-15.13 0h-10.1v-1h10.1zm-15.14 0h-10.1v-1h10.1zm-15.13 0h-5.05v-1h5.05zm242.07 0h-8.02v-1h8.02zM1140 2060.5h-.5v-1h.5z" stroke="#3a414a" stroke-width=".05" fill="#3a414a"/><path d="M775.88 2064.64l-14.26-4.64 14.26-4.64z" fill="#3a414a"/><path d="M776.38 2065.32L760 2060l16.38-5.32zm-13.14-5.32l12.14 3.95v-7.9z" stroke="#3a414a" stroke-width=".05" fill="#3a414a"/><use xlink:href="#D" transform="matrix(1,0,0,1,884.5185185185185,2049.3333333333335) translate(0 14.222222222222223)"/><use xlink:href="#E" transform="matrix(1,0,0,1,884.5185185185185,2049.3333333333335) translate(36.44444444444445 14.222222222222223)"/><path d="M759.5 2100.5h-5v-1h5zm-10 0h-9.98v-1h10zm-14.97 0h-10v-1h10zm-15 0h-9.97v-1h9.98zm-14.97 0h-10v-1h10zm-14.98 0h-10v-1h10zm-15 0h-9.97v-1h10zm-14.97 0h-9.98v-1h10zm-14.97 0h-10v-1h10zm-15 0h-9.97v-1h9.98zm-14.97 0h-10v-1h10zm-14.98 0h-10v-1h10zm-15 0h-9.97v-1h10zm-14.97 0h-9.98v-1h10zm-14.97 0h-10v-1h10zm-15 0h-9.97v-1h9.98zm-14.97 0h-10v-1h10zm-14.98 0h-10v-1h10zm-15 0h-9.97v-1h10zm-14.97 0h-9.98v-1h10zm-14.97 0h-10v-1h10zm-15 0h-9.97v-1h9.98zm-14.97 0h-10v-1h10zm-14.98 0h-10v-1h10zm-15 0h-9.97v-1h10zm-179.6 0h-9.98v-1h9.97zm-14.96 0h-9.97v-1h9.97zm-14.95-1v1h-9.97v-1zm-14.96 1h-9.95v-1h9.96zm-14.94 0h-9.97v-1h9.96zm-14.95 0h-9.96v-1h9.97zm-14.94 0h-9.97v-1h9.96zm-14.96 0h-9.96v-1h9.96zm-14.95 0h-9.97v-1h9.97zm-14.95 0h-9.97v-1h9.97zm-14.95 0h-9.97v-1h9.97zm-14.95-1v1h-9.97v-1zm-14.96 1h-9.97v-1h9.97zm-14.95 0H20.9v-1h9.97zm-14.96 0H5.97v-1h9.97zm-14.95 0H-9v-1H1zm-14.97-1v1h-9.96v-1zm-14.95 1h-9.97v-1h9.98zm-14.95 0h-9.97v-1h9.97zm-14.95 0h-9.97v-1h9.98zm-14.96 0h-9.96v-1h9.96zm-14.95 0h-9.97v-1h9.97zm-14.95 0h-9.97v-1h9.97zm-14.95 0h-5v-1h5zM760 2100.5h-.5v-1h.5z" stroke="#3a414a" stroke-width=".05" fill="#3a414a"/><path d="M-124.12 2104.63l-14.26-4.63 14.26-4.64z" fill="#3a414a"/><path d="M-123.62 2105.32L-140 2100l16.38-5.32zm-13.14-5.32l12.14 3.95v-7.9z" stroke="#3a414a" stroke-width=".05" fill="#3a414a"/><use xlink:href="#w" transform="matrix(1,0,0,1,227.20990501053376,2089.3328333333334) translate(0 14.222222222222223)"/><use xlink:href="#x" transform="matrix(1,0,0,1,227.20990501053376,2089.3328333333334) translate(70.02469135802471 14.222222222222223)"/><path d="M-120.25 79.75c0 10.9-8.84 19.75-19.75 19.75-10.9 0-19.75-8.84-19.75-19.75 0-10.9 8.84-19.75 19.75-19.75 10.9 0 19.75 8.84 19.75 19.75z" stroke="#3a414a" fill="#fff"/><path d="M-140 99.5v49.3a20.7 20.7 0 0 0 3.2 11.07L-100 218m-40-63.2l-40 63.2m0-98.75h80" stroke="#3a414a" fill="none"/><path d="M-180 66a6 6 0 0 1 6-6h68a6 6 0 0 1 6 6v168a6 6 0 0 1-6 6h-68a6 6 0 0 1-6-6z" fill="none"/><g><use xlink:href="#K" transform="matrix(1,0,0,1,-260,218) translate(107.71604938271605 17.77777777777778)"/></g><path d="M-140 156.23v5m0 5v10m0 5v9.98m0 5v10m0 5v10m0 5v9.98m0 5v10m0 5v10m0 4.98v10m0 5v10m0 4.98v10m0 5v10m0 5v9.98m0 5v10m0 5v9.98m0 5v10m0 5v9.98m0 5v10m0 5v9.98m0 5v10m0 5v10m0 4.98v10m0 5v10m0 4.98v10m0 5v10m0 5V536m0 5v10m0 5v9.98m0 5v10m0 5v9.98m0 5v10m0 5v9.98m0 5v10m0 5v9.98m0 5v10m0 5v10m0 4.98v10m0 5v10m0 4.98v10m0 5v10m0 5v9.98m0 5v10m0 5v9.98m0 5v10m0 5v9.98m0 5v10m0 5v9.98m0 5v10m0 5v10m0 4.98v10m0 5v10m0 4.98v10m0 5v10m0 5v9.98m0 5v10m0 5v9.98m0 5v10m0 5v9.98m0 5v10m0 5v9.98m0 5v10m0 5v9.98m0 5v10m0 5v10m0 4.98v10m0 5v10m0 4.98v10m0 5v10m0 5v9.98m0 5v10m0 5v9.98m0 5v10m0 5v9.98m0 5v10m0 5v9.98m0 5v10m0 5v10m0 4.98v10m0 5v10m0 4.98v10m0 5v10m0 5v9.98m0 5v10m0 5v9.98m0 5v10m0 5v9.98m0 5v10m0 5v9.98m0 5v10m0 5v10m0 4.98v10m0 5v10m0 4.98v10m0 5v10m0 4.98v10m0 5v10m0 5v9.98m0 5v10m0 5v9.98m0 5v10m0 5v9.98m0 5v10m0 5v9.98m0 5v10m0 5v10m0 4.98v10m0 5v10m0 4.98v10m0 5v10m0 5v9.98m0 5v10m0 5v9.98m0 5v10m0 5v9.98m0 5v10m0 5v9.98m0 5v10m0 5v10m0 4.98v10m0 5v10m0 4.98v10m0 5v10m0 5v9.98m0 5v10m0 5v9.98m0 5v10m0 5v9.98m0 5v10m0 5v9.98m0 5v10m0 5v9.98m0 5v10m0 5v10m0 4.98v10m0 5v10m0 4.98v10m0 5v10m0 5v9.98m0 5v10m0 5v9.98m0 5v10m0 5v9.98m0 5v10m0 5v9.98m0 5v10m0 5v10m0 4.98v10m0 5v10m0 4.98v10m0 5v10m0 5v9.98m0 5v10m0 5v9.98m0 5v10m0 5v9.98m0 5v10m0 5v9.98m0 5v10m0 5v9.98m0 5v10m0 5v10m0 4.98v10m0 5v10m0 4.98v10m0 5v10m0 5v9.98m0 5v10m0 5v9.98m0 5v10m0 5v9.98m0 5v10m0 5v9.98m0 5v10m0 5v10m0 4.98v10m0 5v10m0 4.98v10m0 5v10m0 5v9.98m0 5v10m0 5v9.98m0 5v10m0 5v9.98m0 5v10m0 5v9.98m0 5v10m0 5v10m0 4.98v5M-140 2959.5v.5" stroke="#3a414a" fill="none"/><path d="M901.2 2240.5H776.4v-1H901.2zm238.3 0H998.8v-1h140.7zM1140 2240.5h-.5v-1h.5z" stroke="#3a414a" stroke-width=".05" fill="#3a414a"/><path d="M775.88 2244.64l-14.26-4.64 14.26-4.64z" fill="#3a414a"/><path d="M776.38 2245.32L760 2240l16.38-5.32zm-13.14-5.32l12.14 3.95v-7.9z" stroke="#3a414a" stroke-width=".05" fill="#3a414a"/><g><use xlink:href="#s" transform="matrix(1,0,0,1,901.2098765432098,2229.333333333333) translate(0 14.222222222222223)"/><use xlink:href="#v" transform="matrix(1,0,0,1,901.2098765432098,2229.333333333333) translate(56.14814814814816 14.222222222222223)"/></g><path d="M759.5 2300.5h-5.14v-1h5.14zm-10.27 0h-10.28v-1h10.28zm-15.4 0h-10.28v-1h10.27zm-15.42 0h-10.26v-1h10.27zm-15.4 0h-10.27v-1H703zm-15.4 0H677.3v-1h10.27zm-184.65-1v1H492.7v-1zm-15.36 1h-10.25v-1h10.24zm-15.37 0H462v-1h10.23zm-15.36-1v1h-10.25v-1zm-15.37 1h-5.12v-1h5.12zM760 2300.5h-.5v-1h.5z" stroke="#3a414a" stroke-width=".05" fill="#3a414a"/><path d="M435.88 2304.63l-14.26-4.63 14.26-4.64z" fill="#3a414a"/><path d="M436.38 2305.32L420 2300l16.38-5.32zm-13.14-5.32l12.14 3.95v-7.9z" stroke="#3a414a" stroke-width=".05" fill="#3a414a"/><g><use xlink:href="#w" transform="matrix(1,0,0,1,507.20990501053376,2289.3328333333334) translate(0 14.222222222222223)"/><use xlink:href="#x" transform="matrix(1,0,0,1,507.20990501053376,2289.3328333333334) translate(70.02469135802471 14.222222222222223)"/></g><path d="M740 286a6 6 0 0 1 6-6h28a6 6 0 0 1 6 6v628a6 6 0 0 1-6 6h-28a6 6 0 0 1-6-6zM1120 306a6 6 0 0 1 6-6h28a6 6 0 0 1 6 6v508a6 6 0 0 1-6 6h-28a6 6 0 0 1-6-6zM1500 386a6 6 0 0 1 6-6h28a6 6 0 0 1 6 6v188a6 6 0 0 1-6 6h-28a6 6 0 0 1-6-6zM740 1006a6 6 0 0 1 6-6h28a6 6 0 0 1 6 6v648a6 6 0 0 1-6 6h-28a6 6 0 0 1-6-6zM1120 1046a6 6 0 0 1 6-6h28a6 6 0 0 1 6 6v468a6 6 0 0 1-6 6h-28a6 6 0 0 1-6-6zM1500 1106a6 6 0 0 1 6-6h28a6 6 0 0 1 6 6v188a6 6 0 0 1-6 6h-28a6 6 0 0 1-6-6zM740 1766a6 6 0 0 1 6-6h28a6 6 0 0 1 6 6v588a6 6 0 0 1-6 6h-28a6 6 0 0 1-6-6zM1120 1826a6 6 0 0 1 6-6h28a6 6 0 0 1 6 6v468a6 6 0 0 1-6 6h-28a6 6 0 0 1-6-6zM1500 1926a6 6 0 0 1 6-6h28a6 6 0 0 1 6 6v108a6 6 0 0 1-6 6h-28a6 6 0 0 1-6-6z" stroke="#3a414a" fill="#fcce14" fill-opacity=".44"/><defs><path fill="#3a414a" d="M205 0l-28-72H64L36 0H1l101-248h38L239 0h-34zm-38-99l-47-123c-12 45-31 82-46 123h93" id="L"/><path fill="#3a414a" d="M30 0v-248h33v221h125V0H30" id="M"/><path fill="#3a414a" d="M127-220V0H93v-220H8v-28h204v28h-85" id="N"/><g id="a"><use transform="matrix(0.06172839506172839,0,0,0.06172839506172839,0,0)" xlink:href="#L"/><use transform="matrix(0.06172839506172839,0,0,0.06172839506172839,14.814814814814813,0)" xlink:href="#M"/><use transform="matrix(0.06172839506172839,0,0,0.06172839506172839,25.493827160493826,0)" xlink:href="#N"/></g><path fill="#3a414a" d="M26 75v-336h71v23H56V52h41v23H26" id="O"/><path fill="#3a414a" d="M100-194c62-1 85 37 85 99 1 63-27 99-86 99S16-35 15-95c0-66 28-99 85-99zM99-20c44 1 53-31 53-75 0-43-8-75-51-75s-53 32-53 75 10 74 51 75" id="P"/><path fill="#3a414a" d="M143 0L79-87 56-68V0H24v-261h32v163l83-92h37l-77 82L181 0h-38" id="Q"/><path fill="#3a414a" d="M100-194c63 0 86 42 84 106H49c0 40 14 67 53 68 26 1 43-12 49-29l28 8c-11 28-37 45-77 45C44 4 14-33 15-96c1-61 26-98 85-98zm52 81c6-60-76-77-97-28-3 7-6 17-6 28h103" id="R"/><path fill="#3a414a" d="M117-194c89-4 53 116 60 194h-32v-121c0-31-8-49-39-48C34-167 62-67 57 0H25l-1-190h30c1 10-1 24 2 32 11-22 29-35 61-36" id="S"/><g id="b"><use transform="matrix(0.06172839506172839,0,0,0.06172839506172839,0,0)" xlink:href="#O"/><use transform="matrix(0.06172839506172839,0,0,0.06172839506172839,6.172839506172839,0)" xlink:href="#N"/><use transform="matrix(0.06172839506172839,0,0,0.06172839506172839,17.22222222222222,0)" xlink:href="#P"/><use transform="matrix(0.06172839506172839,0,0,0.06172839506172839,29.5679012345679,0)" xlink:href="#Q"/><use transform="matrix(0.06172839506172839,0,0,0.06172839506172839,40.67901234567901,0)" xlink:href="#R"/><use transform="matrix(0.06172839506172839,0,0,0.06172839506172839,53.02469135802469,0)" xlink:href="#S"/></g><path fill="#3a414a" d="M108 0H70L1-190h34L89-25l56-165h34" id="T"/><path fill="#3a414a" d="M141-36C126-15 110 5 73 4 37 3 15-17 15-53c-1-64 63-63 125-63 3-35-9-54-41-54-24 1-41 7-42 31l-33-3c5-37 33-52 76-52 45 0 72 20 72 64v82c-1 20 7 32 28 27v20c-31 9-61-2-59-35zM48-53c0 20 12 33 32 33 41-3 63-29 60-74-43 2-92-5-92 41" id="U"/><path fill="#3a414a" d="M24 0v-261h32V0H24" id="V"/><path fill="#3a414a" d="M24-231v-30h32v30H24zM24 0v-190h32V0H24" id="W"/><path fill="#3a414a" d="M85-194c31 0 48 13 60 33l-1-100h32l1 261h-30c-2-10 0-23-3-31C134-8 116 4 85 4 32 4 16-35 15-94c0-66 23-100 70-100zm9 24c-40 0-46 34-46 75 0 40 6 74 45 74 42 0 51-32 51-76 0-42-9-74-50-73" id="X"/><path fill="#3a414a" d="M3 75V52h41v-290H3v-23h71V75H3" id="Y"/><g id="c"><use transform="matrix(0.06172839506172839,0,0,0.06172839506172839,0,0)" xlink:href="#T"/><use transform="matrix(0.06172839506172839,0,0,0.06172839506172839,11.11111111111111,0)" xlink:href="#U"/><use transform="matrix(0.06172839506172839,0,0,0.06172839506172839,23.45679012345679,0)" xlink:href="#V"/><use transform="matrix(0.06172839506172839,0,0,0.06172839506172839,28.333333333333336,0)" xlink:href="#W"/><use transform="matrix(0.06172839506172839,0,0,0.06172839506172839,33.20987654320988,0)" xlink:href="#X"/><use transform="matrix(0.06172839506172839,0,0,0.06172839506172839,45.55555555555556,0)" xlink:href="#Y"/></g><path fill="#3a414a" d="M30 0v-248h187v28H63v79h144v27H63v87h162V0H30" id="Z"/><path fill="#3a414a" d="M135-143c-3-34-86-38-87 0 15 53 115 12 119 90S17 21 10-45l28-5c4 36 97 45 98 0-10-56-113-15-118-90-4-57 82-63 122-42 12 7 21 19 24 35" id="aa"/><g id="d"><use transform="matrix(0.06172839506172839,0,0,0.06172839506172839,0,0)" xlink:href="#O"/><use transform="matrix(0.06172839506172839,0,0,0.06172839506172839,6.172839506172839,0)" xlink:href="#Z"/><use transform="matrix(0.06172839506172839,0,0,0.06172839506172839,20.98765432098765,0)" xlink:href="#V"/><use transform="matrix(0.06172839506172839,0,0,0.06172839506172839,25.864197530864196,0)" xlink:href="#aa"/><use transform="matrix(0.06172839506172839,0,0,0.06172839506172839,36.9753086419753,0)" xlink:href="#R"/><use transform="matrix(0.06172839506172839,0,0,0.06172839506172839,49.32098765432098,0)" xlink:href="#Y"/></g><path fill="#3a414a" d="M212-179c-10-28-35-45-73-45-59 0-87 40-87 99 0 60 29 101 89 101 43 0 62-24 78-52l27 14C228-24 195 4 139 4 59 4 22-46 18-125c-6-104 99-153 187-111 19 9 31 26 39 46" id="ab"/><path fill="#3a414a" d="M114-163C36-179 61-72 57 0H25l-1-190h30c1 12-1 29 2 39 6-27 23-49 58-41v29" id="ac"/><path fill="#3a414a" d="M59-47c-2 24 18 29 38 22v24C64 9 27 4 27-40v-127H5v-23h24l9-43h21v43h35v23H59v120" id="ad"/><g id="e"><use transform="matrix(0.06172839506172839,0,0,0.06172839506172839,0,0)" xlink:href="#ab"/><use transform="matrix(0.06172839506172839,0,0,0.06172839506172839,15.987654320987653,0)" xlink:href="#P"/><use transform="matrix(0.06172839506172839,0,0,0.06172839506172839,28.333333333333332,0)" xlink:href="#P"/><use transform="matrix(0.06172839506172839,0,0,0.06172839506172839,40.67901234567901,0)" xlink:href="#ac"/><use transform="matrix(0.06172839506172839,0,0,0.06172839506172839,48.02469135802469,0)" xlink:href="#X"/><use transform="matrix(0.06172839506172839,0,0,0.06172839506172839,60.37037037037037,0)" xlink:href="#W"/><use transform="matrix(0.06172839506172839,0,0,0.06172839506172839,65.24691358024691,0)" xlink:href="#S"/><use transform="matrix(0.06172839506172839,0,0,0.06172839506172839,77.5925925925926,0)" xlink:href="#U"/><use transform="matrix(0.06172839506172839,0,0,0.06172839506172839,89.93827160493828,0)" xlink:href="#ad"/><use transform="matrix(0.06172839506172839,0,0,0.06172839506172839,96.11111111111111,0)" xlink:href="#P"/><use transform="matrix(0.06172839506172839,0,0,0.06172839506172839,108.4567901234568,0)" xlink:href="#ac"/></g><path d="M205 0l-28-72H64L36 0H1l101-248h38L239 0h-34zm-38-99l-47-123c-12 45-31 82-46 123h93" id="ae"/><path d="M135-143c-3-34-86-38-87 0 15 53 115 12 119 90S17 21 10-45l28-5c4 36 97 45 98 0-10-56-113-15-118-90-4-57 82-63 122-42 12 7 21 19 24 35" id="af"/><path d="M59-47c-2 24 18 29 38 22v24C64 9 27 4 27-40v-127H5v-23h24l9-43h21v43h35v23H59v120" id="ag"/><path d="M114-163C36-179 61-72 57 0H25l-1-190h30c1 12-1 29 2 39 6-27 23-49 58-41v29" id="ah"/><path d="M100-194c62-1 85 37 85 99 1 63-27 99-86 99S16-35 15-95c0-66 28-99 85-99zM99-20c44 1 53-31 53-75 0-43-8-75-51-75s-53 32-53 75 10 74 51 75" id="ai"/><g id="f"><use transform="matrix(0.05,0,0,0.05,0,0)" xlink:href="#ae"/><use transform="matrix(0.05,0,0,0.05,12,0)" xlink:href="#af"/><use transform="matrix(0.05,0,0,0.05,21,0)" xlink:href="#ag"/><use transform="matrix(0.05,0,0,0.05,26,0)" xlink:href="#ah"/><use transform="matrix(0.05,0,0,0.05,31.950000000000003,0)" xlink:href="#ai"/><path d="M-.9 1.25h48.75v1.32H-.9z"/></g><path d="M115-194c55 1 70 41 70 98S169 2 115 4C84 4 66-9 55-30l1 105H24l-1-265h31l2 30c10-21 28-34 59-34zm-8 174c40 0 45-34 45-75s-6-73-45-74c-42 0-51 32-51 76 0 43 10 73 51 73" id="aj"/><g id="g"><use transform="matrix(0.05,0,0,0.05,0,0)" xlink:href="#ae"/><use transform="matrix(0.05,0,0,0.05,12,0)" xlink:href="#aj"/><use transform="matrix(0.05,0,0,0.05,22,0)" xlink:href="#aj"/><path d="M-.9 1.25h33.8v1.32H-.9z"/></g><path d="M190 0L58-211 59 0H30v-248h39L202-35l-2-213h31V0h-41" id="ak"/><path d="M100-194c63 0 86 42 84 106H49c0 40 14 67 53 68 26 1 43-12 49-29l28 8c-11 28-37 45-77 45C44 4 14-33 15-96c1-61 26-98 85-98zm52 81c6-60-76-77-97-28-3 7-6 17-6 28h103" id="al"/><g id="h"><use transform="matrix(0.05,0,0,0.05,0,0)" xlink:href="#ak"/><use transform="matrix(0.05,0,0,0.05,12.950000000000001,0)" xlink:href="#al"/><use transform="matrix(0.05,0,0,0.05,22.950000000000003,0)" xlink:href="#af"/><use transform="matrix(0.05,0,0,0.05,31.950000000000003,0)" xlink:href="#ag"/><path d="M-.9 1.25h43.75v1.32H-.9z"/></g><path d="M30-248c118-7 216 8 213 122C240-48 200 0 122 0H30v-248zM63-27c89 8 146-16 146-99s-60-101-146-95v194" id="am"/><path d="M141-36C126-15 110 5 73 4 37 3 15-17 15-53c-1-64 63-63 125-63 3-35-9-54-41-54-24 1-41 7-42 31l-33-3c5-37 33-52 76-52 45 0 72 20 72 64v82c-1 20 7 32 28 27v20c-31 9-61-2-59-35zM48-53c0 20 12 33 32 33 41-3 63-29 60-74-43 2-92-5-92 41" id="an"/><path d="M115-194c53 0 69 39 70 98 0 66-23 100-70 100C84 3 66-7 56-30L54 0H23l1-261h32v101c10-23 28-34 59-34zm-8 174c40 0 45-34 45-75 0-40-5-75-45-74-42 0-51 32-51 76 0 43 10 73 51 73" id="ao"/><g id="i"><use transform="matrix(0.05,0,0,0.05,0,0)" xlink:href="#am"/><use transform="matrix(0.05,0,0,0.05,12.950000000000001,0)" xlink:href="#an"/><use transform="matrix(0.05,0,0,0.05,22.950000000000003,0)" xlink:href="#ag"/><use transform="matrix(0.05,0,0,0.05,27.950000000000003,0)" xlink:href="#an"/><use transform="matrix(0.05,0,0,0.05,37.95,0)" xlink:href="#ao"/><use transform="matrix(0.05,0,0,0.05,47.95,0)" xlink:href="#an"/><use transform="matrix(0.05,0,0,0.05,57.95,0)" xlink:href="#af"/><use transform="matrix(0.05,0,0,0.05,66.95,0)" xlink:href="#al"/><path d="M-.9 1.25h78.75v1.32H-.9z"/></g><path d="M30-248c87 1 191-15 191 75 0 78-77 80-158 76V0H30v-248zm33 125c57 0 124 11 124-50 0-59-68-47-124-48v98" id="ap"/><path d="M24-231v-30h32v30H24zM24 0v-190h32V0H24" id="aq"/><path d="M210-169c-67 3-38 105-44 169h-31v-121c0-29-5-50-35-48C34-165 62-65 56 0H25l-1-190h30c1 10-1 24 2 32 10-44 99-50 107 0 11-21 27-35 58-36 85-2 47 119 55 194h-31v-121c0-29-5-49-35-48" id="ar"/><g id="j"><use transform="matrix(0.05,0,0,0.05,0,0)" xlink:href="#ap"/><use transform="matrix(0.05,0,0,0.05,12,0)" xlink:href="#ah"/><use transform="matrix(0.05,0,0,0.05,17.95,0)" xlink:href="#aq"/><use transform="matrix(0.05,0,0,0.05,21.9,0)" xlink:href="#af"/><use transform="matrix(0.05,0,0,0.05,30.899999999999995,0)" xlink:href="#ar"/><use transform="matrix(0.05,0,0,0.05,45.85,0)" xlink:href="#an"/><path d="M-.9 1.25h62.65v1.32H-.9z"/></g><path d="M140-251c81 0 123 46 123 126C263-46 219 4 140 4 59 4 17-45 17-125s42-126 123-126zm0 227c63 0 89-41 89-101s-29-99-89-99c-61 0-89 39-89 99S79-25 140-24" id="as"/><path d="M233-177c-1 41-23 64-60 70L243 0h-38l-65-103H63V0H30v-248c88 3 205-21 203 71zM63-129c60-2 137 13 137-47 0-61-80-42-137-45v92" id="at"/><path d="M240 0l2-218c-23 76-54 145-80 218h-23L58-218 59 0H30v-248h44l77 211c21-75 51-140 76-211h43V0h-30" id="au"/><g id="k"><use transform="matrix(0.05,0,0,0.05,0,0)" xlink:href="#as"/><use transform="matrix(0.05,0,0,0.05,14,0)" xlink:href="#at"/><use transform="matrix(0.05,0,0,0.05,26.950000000000003,0)" xlink:href="#au"/><path d="M-.9 1.25h43.7v1.32H-.9z"/></g><path fill="#333" d="M25-224v-37h50v37H25zM25 0v-190h50V0H25" id="av"/><path fill="#333" d="M135-194c87-1 58 113 63 194h-50c-7-57 23-157-34-157-59 0-34 97-39 157H25l-1-190h47c2 12-1 28 3 38 12-26 28-41 61-42" id="aw"/><path fill="#333" d="M128 0H69L1-190h53L99-40l48-150h52" id="ax"/><path fill="#333" d="M115-3C79 11 28 4 28-45v-112H4v-33h27l15-45h31v45h36v33H77v99c-1 23 16 31 38 25v30" id="ay"/><path fill="#333" d="M185-48c-13 30-37 53-82 52C43 2 14-33 14-96s30-98 90-98c62 0 83 45 84 108H66c0 31 8 55 39 56 18 0 30-7 34-22zm-45-69c5-46-57-63-70-21-2 6-4 13-4 21h74" id="az"/><g id="l"><use transform="matrix(0.04938271604938272,0,0,0.04938271604938272,0,0)" xlink:href="#av"/><use transform="matrix(0.04938271604938272,0,0,0.04938271604938272,4.938271604938272,0)" xlink:href="#aw"/><use transform="matrix(0.04938271604938272,0,0,0.04938271604938272,15.753086419753087,0)" xlink:href="#ax"/><use transform="matrix(0.04938271604938272,0,0,0.04938271604938272,25.629629629629633,0)" xlink:href="#av"/><use transform="matrix(0.04938271604938272,0,0,0.04938271604938272,30.567901234567906,0)" xlink:href="#ay"/><use transform="matrix(0.04938271604938272,0,0,0.04938271604938272,36.44444444444445,0)" xlink:href="#az"/></g><path fill="#333" d="M135-194c53 0 70 44 70 98 0 56-19 98-73 100-31 1-45-17-59-34 3 33 2 69 2 105H25l-1-265h48c2 10 0 23 3 31 11-24 29-35 60-35zM114-30c33 0 39-31 40-66 0-38-9-64-40-64-56 0-55 130 0 130" id="aA"/><path fill="#333" d="M133-34C117-15 103 5 69 4 32 3 11-16 11-54c-1-60 55-63 116-61 1-26-3-47-28-47-18 1-26 9-28 27l-52-2c7-38 36-58 82-57s74 22 75 68l1 82c-1 14 12 18 25 15v27c-30 8-71 5-69-32zm-48 3c29 0 43-24 42-57-32 0-66-3-65 30 0 17 8 27 23 27" id="aB"/><path fill="#333" d="M135-150c-39-12-60 13-60 57V0H25l-1-190h47c2 13-1 29 3 40 6-28 27-53 61-41v41" id="aC"/><path fill="#333" d="M190-63c-7 42-38 67-86 67-59 0-84-38-90-98-12-110 154-137 174-36l-49 2c-2-19-15-32-35-32-30 0-35 28-38 64-6 74 65 87 74 30" id="aD"/><g id="m"><use transform="matrix(0.04938271604938272,0,0,0.04938271604938272,0,0)" xlink:href="#aA"/><use transform="matrix(0.04938271604938272,0,0,0.04938271604938272,10.814814814814815,0)" xlink:href="#aB"/><use transform="matrix(0.04938271604938272,0,0,0.04938271604938272,20.69135802469136,0)" xlink:href="#aC"/><use transform="matrix(0.04938271604938272,0,0,0.04938271604938272,27.604938271604947,0)" xlink:href="#ay"/><use transform="matrix(0.04938271604938272,0,0,0.04938271604938272,33.48148148148149,0)" xlink:href="#av"/><use transform="matrix(0.04938271604938272,0,0,0.04938271604938272,38.41975308641976,0)" xlink:href="#aD"/><use transform="matrix(0.04938271604938272,0,0,0.04938271604938272,48.296296296296305,0)" xlink:href="#av"/><use transform="matrix(0.04938271604938272,0,0,0.04938271604938272,53.23456790123457,0)" xlink:href="#aA"/><use transform="matrix(0.04938271604938272,0,0,0.04938271604938272,64.0493827160494,0)" xlink:href="#aB"/><use transform="matrix(0.04938271604938272,0,0,0.04938271604938272,73.92592592592594,0)" xlink:href="#aw"/><use transform="matrix(0.04938271604938272,0,0,0.04938271604938272,84.74074074074075,0)" xlink:href="#ay"/></g><path fill="#333" d="M199 0l-22-63H83L61 0H9l90-248h61L250 0h-51zm-33-102l-36-108c-10 38-24 72-36 108h72" id="aE"/><path fill="#333" d="M88-194c31-1 46 15 58 34l-1-101h50l1 261h-48c-2-10 0-23-3-31C134-8 116 4 84 4 32 4 16-41 15-95c0-56 19-97 73-99zm17 164c33 0 40-30 41-66 1-37-9-64-41-64s-38 30-39 65c0 43 13 65 39 65" id="aF"/><path fill="#333" d="M275 0h-61l-44-196L126 0H64L0-248h53L97-49l45-199h58l43 199 44-199h52" id="aG"/><path fill="#333" d="M135-194c52 0 70 43 70 98 0 56-19 99-73 100-30 1-46-15-58-35L72 0H24l1-261h50v104c11-23 29-37 60-37zM114-30c31 0 40-27 40-66 0-37-7-63-39-63s-41 28-41 65c0 36 8 64 40 64" id="aH"/><path fill="#333" d="M67-93c0 74 22 123 53 168H70C40 30 18-18 18-93s22-123 52-168h50c-32 44-53 94-53 168" id="aI"/><path fill="#333" d="M110-194c64 0 96 36 96 99 0 64-35 99-97 99-61 0-95-36-95-99 0-62 34-99 96-99zm-1 164c35 0 45-28 45-65 0-40-10-65-43-65-34 0-45 26-45 65 0 36 10 65 43 65" id="aJ"/><path fill="#333" d="M147 0L96-86 75-71V0H25v-261h50v150l67-79h53l-66 74L201 0h-54" id="aK"/><path fill="#333" d="M24 0v-54h51V0H24" id="aL"/><path fill="#333" d="M76-54c-1 42 2 86-19 110H24C36 42 46 24 48 0H25v-54h51" id="aM"/><path fill="#333" d="M231 0h-52l-39-155L100 0H48L-1-190h46L77-45c9-52 24-97 36-145h53l37 145 32-145h46" id="aN"/><path fill="#333" d="M-4 44V30h207v14H-4" id="aO"/><path fill="#333" d="M175 0L67-191c6 58 2 128 3 191H24v-248h59L193-55c-6-58-2-129-3-193h46V0h-61" id="aP"/><path fill="#333" d="M220-157c-53 9-28 100-34 157h-49v-107c1-27-5-49-29-50C55-147 81-57 75 0H25l-1-190h47c2 12-1 28 3 38 10-53 101-56 108 0 13-22 24-43 59-42 82 1 51 116 57 194h-49v-107c-1-25-5-48-29-50" id="aQ"/><path fill="#333" d="M102-93c0 74-22 123-52 168H0C30 29 54-18 53-93c0-74-22-123-53-168h50c30 45 52 94 52 168" id="aR"/><g id="n"><use transform="matrix(0.04938271604938272,0,0,0.04938271604938272,0,0)" xlink:href="#aA"/><use transform="matrix(0.04938271604938272,0,0,0.04938271604938272,10.814814814814815,0)" xlink:href="#aB"/><use transform="matrix(0.04938271604938272,0,0,0.04938271604938272,20.69135802469136,0)" xlink:href="#aC"/><use transform="matrix(0.04938271604938272,0,0,0.04938271604938272,27.604938271604947,0)" xlink:href="#ay"/><use transform="matrix(0.04938271604938272,0,0,0.04938271604938272,33.48148148148149,0)" xlink:href="#aE"/><use transform="matrix(0.04938271604938272,0,0,0.04938271604938272,46.271604938271615,0)" xlink:href="#aF"/><use transform="matrix(0.04938271604938272,0,0,0.04938271604938272,57.08641975308644,0)" xlink:href="#aF"/><use transform="matrix(0.04938271604938272,0,0,0.04938271604938272,67.90123456790124,0)" xlink:href="#aG"/><use transform="matrix(0.04938271604938272,0,0,0.04938271604938272,84.64197530864197,0)" xlink:href="#aH"/><use transform="matrix(0.04938271604938272,0,0,0.04938271604938272,95.45679012345678,0)" xlink:href="#aI"/><use transform="matrix(0.04938271604938272,0,0,0.04938271604938272,101.33333333333331,0)" xlink:href="#ay"/><use transform="matrix(0.04938271604938272,0,0,0.04938271604938272,107.20987654320986,0)" xlink:href="#aJ"/><use transform="matrix(0.04938271604938272,0,0,0.04938271604938272,118.02469135802468,0)" xlink:href="#aK"/><use transform="matrix(0.04938271604938272,0,0,0.04938271604938272,127.90123456790123,0)" xlink:href="#az"/><use transform="matrix(0.04938271604938272,0,0,0.04938271604938272,137.77777777777777,0)" xlink:href="#aw"/><use transform="matrix(0.04938271604938272,0,0,0.04938271604938272,148.59259259259258,0)" xlink:href="#aL"/><use transform="matrix(0.04938271604938272,0,0,0.04938271604938272,153.53086419753086,0)" xlink:href="#av"/><use transform="matrix(0.04938271604938272,0,0,0.04938271604938272,158.46913580246914,0)" xlink:href="#aF"/><use transform="matrix(0.04938271604938272,0,0,0.04938271604938272,169.28395061728395,0)" xlink:href="#aM"/><use transform="matrix(0.04938271604938272,0,0,0.04938271604938272,174.22222222222223,0)" xlink:href="#aN"/><use transform="matrix(0.04938271604938272,0,0,0.04938271604938272,188.0493827160494,0)" xlink:href="#aH"/><use transform="matrix(0.04938271604938272,0,0,0.04938271604938272,198.8641975308642,0)" xlink:href="#aO"/><use transform="matrix(0.04938271604938272,0,0,0.04938271604938272,208.74074074074076,0)" xlink:href="#av"/><use transform="matrix(0.04938271604938272,0,0,0.04938271604938272,213.67901234567904,0)" xlink:href="#aF"/><use transform="matrix(0.04938271604938272,0,0,0.04938271604938272,224.49382716049385,0)" xlink:href="#aM"/><use transform="matrix(0.04938271604938272,0,0,0.04938271604938272,229.43209876543213,0)" xlink:href="#aA"/><use transform="matrix(0.04938271604938272,0,0,0.04938271604938272,240.24691358024694,0)" xlink:href="#aB"/><use transform="matrix(0.04938271604938272,0,0,0.04938271604938272,250.12345679012347,0)" xlink:href="#aC"/><use transform="matrix(0.04938271604938272,0,0,0.04938271604938272,257.03703703703707,0)" xlink:href="#ay"/><use transform="matrix(0.04938271604938272,0,0,0.04938271604938272,262.9135802469136,0)" xlink:href="#aP"/><use transform="matrix(0.04938271604938272,0,0,0.04938271604938272,275.70370370370375,0)" xlink:href="#aB"/><use transform="matrix(0.04938271604938272,0,0,0.04938271604938272,285.5802469135803,0)" xlink:href="#aQ"/><use transform="matrix(0.04938271604938272,0,0,0.04938271604938272,301.3827160493828,0)" xlink:href="#az"/><use transform="matrix(0.04938271604938272,0,0,0.04938271604938272,311.25925925925935,0)" xlink:href="#aR"/></g><g id="o"><use transform="matrix(0.04938271604938272,0,0,0.04938271604938272,0,0)" xlink:href="#aD"/><use transform="matrix(0.04938271604938272,0,0,0.04938271604938272,9.876543209876544,0)" xlink:href="#aC"/><use transform="matrix(0.04938271604938272,0,0,0.04938271604938272,16.790123456790127,0)" xlink:href="#az"/><use transform="matrix(0.04938271604938272,0,0,0.04938271604938272,26.666666666666668,0)" xlink:href="#aB"/><use transform="matrix(0.04938271604938272,0,0,0.04938271604938272,36.543209876543216,0)" xlink:href="#ay"/><use transform="matrix(0.04938271604938272,0,0,0.04938271604938272,42.41975308641976,0)" xlink:href="#az"/><use transform="matrix(0.04938271604938272,0,0,0.04938271604938272,52.2962962962963,0)" xlink:href="#aI"/><use transform="matrix(0.04938271604938272,0,0,0.04938271604938272,58.17283950617284,0)" xlink:href="#aA"/><use transform="matrix(0.04938271604938272,0,0,0.04938271604938272,68.98765432098766,0)" xlink:href="#aB"/><use transform="matrix(0.04938271604938272,0,0,0.04938271604938272,78.8641975308642,0)" xlink:href="#aC"/><use transform="matrix(0.04938271604938272,0,0,0.04938271604938272,85.77777777777779,0)" xlink:href="#ay"/><use transform="matrix(0.04938271604938272,0,0,0.04938271604938272,91.65432098765433,0)" xlink:href="#aP"/><use transform="matrix(0.04938271604938272,0,0,0.04938271604938272,104.44444444444446,0)" xlink:href="#aB"/><use transform="matrix(0.04938271604938272,0,0,0.04938271604938272,114.320987654321,0)" xlink:href="#aQ"/><use transform="matrix(0.04938271604938272,0,0,0.04938271604938272,130.12345679012347,0)" xlink:href="#az"/><use transform="matrix(0.04938271604938272,0,0,0.04938271604938272,140,0)" xlink:href="#aM"/></g><g id="p"><use transform="matrix(0.04938271604938272,0,0,0.04938271604938272,0,0)" xlink:href="#aN"/><use transform="matrix(0.04938271604938272,0,0,0.04938271604938272,13.827160493827162,0)" xlink:href="#aH"/><use transform="matrix(0.04938271604938272,0,0,0.04938271604938272,24.641975308641975,0)" xlink:href="#aO"/><use transform="matrix(0.04938271604938272,0,0,0.04938271604938272,34.51851851851852,0)" xlink:href="#av"/><use transform="matrix(0.04938271604938272,0,0,0.04938271604938272,39.45679012345679,0)" xlink:href="#aF"/><use transform="matrix(0.04938271604938272,0,0,0.04938271604938272,50.27160493827161,0)" xlink:href="#aR"/></g><path fill="#333" d="M137-138c1-29-70-34-71-4 15 46 118 7 119 86 1 83-164 76-172 9l43-7c4 19 20 25 44 25 33 8 57-30 24-41C81-84 22-81 20-136c-2-80 154-74 161-7" id="aS"/><path fill="#333" d="M85 4C-2 5 27-109 22-190h50c7 57-23 150 33 157 60-5 35-97 40-157h50l1 190h-47c-2-12 1-28-3-38-12 25-28 42-61 42" id="aT"/><path fill="#333" d="M121-226c-27-7-43 5-38 36h38v33H83V0H34v-157H6v-33h28c-9-59 32-81 87-68v32" id="aU"/><path fill="#333" d="M25 0v-261h50V0H25" id="aV"/><g id="q"><use transform="matrix(0.04938271604938272,0,0,0.04938271604938272,0,0)" xlink:href="#aS"/><use transform="matrix(0.04938271604938272,0,0,0.04938271604938272,9.876543209876544,0)" xlink:href="#aT"/><use transform="matrix(0.04938271604938272,0,0,0.04938271604938272,20.69135802469136,0)" xlink:href="#aD"/><use transform="matrix(0.04938271604938272,0,0,0.04938271604938272,30.567901234567906,0)" xlink:href="#aD"/><use transform="matrix(0.04938271604938272,0,0,0.04938271604938272,40.44444444444445,0)" xlink:href="#az"/><use transform="matrix(0.04938271604938272,0,0,0.04938271604938272,50.320987654320994,0)" xlink:href="#aS"/><use transform="matrix(0.04938271604938272,0,0,0.04938271604938272,60.19753086419754,0)" xlink:href="#aS"/><use transform="matrix(0.04938271604938272,0,0,0.04938271604938272,70.07407407407408,0)" xlink:href="#aU"/><use transform="matrix(0.04938271604938272,0,0,0.04938271604938272,75.95061728395062,0)" xlink:href="#aT"/><use transform="matrix(0.04938271604938272,0,0,0.04938271604938272,86.76543209876543,0)" xlink:href="#aV"/></g><path fill="#333" d="M195-6C206 82 75 100 31 46c-4-6-6-13-8-21l49-6c3 16 16 24 34 25 40 0 42-37 40-79-11 22-30 35-61 35-53 0-70-43-70-97 0-56 18-96 73-97 30 0 46 14 59 34l2-30h47zm-90-29c32 0 41-27 41-63 0-35-9-62-40-62-32 0-39 29-40 63 0 36 9 62 39 62" id="aW"/><g id="r"><use transform="matrix(0.04938271604938272,0,0,0.04938271604938272,0,0)" xlink:href="#aB"/><use transform="matrix(0.04938271604938272,0,0,0.04938271604938272,9.876543209876544,0)" xlink:href="#aF"/><use transform="matrix(0.04938271604938272,0,0,0.04938271604938272,20.69135802469136,0)" xlink:href="#aF"/><use transform="matrix(0.04938271604938272,0,0,0.04938271604938272,31.506172839506174,0)" xlink:href="#av"/><use transform="matrix(0.04938271604938272,0,0,0.04938271604938272,36.44444444444445,0)" xlink:href="#aw"/><use transform="matrix(0.04938271604938272,0,0,0.04938271604938272,47.25925925925927,0)" xlink:href="#aW"/></g><g id="s"><use transform="matrix(0.04938271604938272,0,0,0.04938271604938272,0,0)" xlink:href="#aC"/><use transform="matrix(0.04938271604938272,0,0,0.04938271604938272,6.913580246913581,0)" xlink:href="#az"/><use transform="matrix(0.04938271604938272,0,0,0.04938271604938272,16.790123456790127,0)" xlink:href="#ay"/><use transform="matrix(0.04938271604938272,0,0,0.04938271604938272,22.66666666666667,0)" xlink:href="#aT"/><use transform="matrix(0.04938271604938272,0,0,0.04938271604938272,33.48148148148149,0)" xlink:href="#aC"/><use transform="matrix(0.04938271604938272,0,0,0.04938271604938272,40.39506172839507,0)" xlink:href="#aw"/></g><g id="t"><use transform="matrix(0.04938271604938272,0,0,0.04938271604938272,0,0)" xlink:href="#aJ"/><use transform="matrix(0.04938271604938272,0,0,0.04938271604938272,10.814814814814815,0)" xlink:href="#aK"/></g><g id="u"><use transform="matrix(0.04938271604938272,0,0,0.04938271604938272,0,0)" xlink:href="#aS"/><use transform="matrix(0.04938271604938272,0,0,0.04938271604938272,9.876543209876544,0)" xlink:href="#aT"/><use transform="matrix(0.04938271604938272,0,0,0.04938271604938272,20.69135802469136,0)" xlink:href="#aD"/><use transform="matrix(0.04938271604938272,0,0,0.04938271604938272,30.567901234567906,0)" xlink:href="#aD"/><use transform="matrix(0.04938271604938272,0,0,0.04938271604938272,40.44444444444445,0)" xlink:href="#az"/><use transform="matrix(0.04938271604938272,0,0,0.04938271604938272,50.320987654320994,0)" xlink:href="#aS"/><use transform="matrix(0.04938271604938272,0,0,0.04938271604938272,60.19753086419754,0)" xlink:href="#aS"/><use transform="matrix(0.04938271604938272,0,0,0.04938271604938272,70.07407407407408,0)" xlink:href="#aU"/><use transform="matrix(0.04938271604938272,0,0,0.04938271604938272,75.95061728395062,0)" xlink:href="#aT"/><use transform="matrix(0.04938271604938272,0,0,0.04938271604938272,86.76543209876543,0)" xlink:href="#aV"/></g><g id="v"><use transform="matrix(0.04938271604938272,0,0,0.04938271604938272,0,0)" xlink:href="#az"/><use transform="matrix(0.04938271604938272,0,0,0.04938271604938272,9.876543209876544,0)" xlink:href="#aC"/><use transform="matrix(0.04938271604938272,0,0,0.04938271604938272,16.790123456790127,0)" xlink:href="#aC"/><use transform="matrix(0.04938271604938272,0,0,0.04938271604938272,23.70370370370371,0)" xlink:href="#aJ"/><use transform="matrix(0.04938271604938272,0,0,0.04938271604938272,34.518518518518526,0)" xlink:href="#aC"/></g><g id="w"><use transform="matrix(0.04938271604938272,0,0,0.04938271604938272,0,0)" xlink:href="#aC"/><use transform="matrix(0.04938271604938272,0,0,0.04938271604938272,6.913580246913581,0)" xlink:href="#az"/><use transform="matrix(0.04938271604938272,0,0,0.04938271604938272,16.790123456790127,0)" xlink:href="#aF"/><use transform="matrix(0.04938271604938272,0,0,0.04938271604938272,27.604938271604947,0)" xlink:href="#av"/><use transform="matrix(0.04938271604938272,0,0,0.04938271604938272,32.543209876543216,0)" xlink:href="#aC"/><use transform="matrix(0.04938271604938272,0,0,0.04938271604938272,39.4567901234568,0)" xlink:href="#az"/><use transform="matrix(0.04938271604938272,0,0,0.04938271604938272,49.33333333333334,0)" xlink:href="#aD"/><use transform="matrix(0.04938271604938272,0,0,0.04938271604938272,59.209876543209894,0)" xlink:href="#ay"/></g><path fill="#333" d="M4 7l51-268h42L46 7H4" id="aX"/><path fill="#333" d="M114-157C55-157 80-60 75 0H25v-261h50l-1 109c12-26 28-41 61-42 86-1 58 113 63 194h-50c-7-57 23-157-34-157" id="aY"/><g id="x"><use transform="matrix(0.04938271604938272,0,0,0.04938271604938272,0,0)" xlink:href="#aX"/><use transform="matrix(0.04938271604938272,0,0,0.04938271604938272,4.938271604938272,0)" xlink:href="#aF"/><use transform="matrix(0.04938271604938272,0,0,0.04938271604938272,15.753086419753087,0)" xlink:href="#aB"/><use transform="matrix(0.04938271604938272,0,0,0.04938271604938272,25.629629629629633,0)" xlink:href="#aS"/><use transform="matrix(0.04938271604938272,0,0,0.04938271604938272,35.50617283950618,0)" xlink:href="#aY"/><use transform="matrix(0.04938271604938272,0,0,0.04938271604938272,46.320987654320994,0)" xlink:href="#aH"/><use transform="matrix(0.04938271604938272,0,0,0.04938271604938272,57.135802469135804,0)" xlink:href="#aJ"/><use transform="matrix(0.04938271604938272,0,0,0.04938271604938272,67.95061728395062,0)" xlink:href="#aB"/><use transform="matrix(0.04938271604938272,0,0,0.04938271604938272,77.82716049382717,0)" xlink:href="#aC"/><use transform="matrix(0.04938271604938272,0,0,0.04938271604938272,84.74074074074075,0)" xlink:href="#aF"/></g><g id="y"><use transform="matrix(0.04938271604938272,0,0,0.04938271604938272,0,0)" xlink:href="#aK"/><use transform="matrix(0.04938271604938272,0,0,0.04938271604938272,9.876543209876544,0)" xlink:href="#av"/><use transform="matrix(0.04938271604938272,0,0,0.04938271604938272,14.814814814814817,0)" xlink:href="#aD"/><use transform="matrix(0.04938271604938272,0,0,0.04938271604938272,24.69135802469136,0)" xlink:href="#aK"/></g><path fill="#333" d="M24-248c93 1 206-16 204 79-1 75-69 88-152 82V0H24v-248zm52 121c47 0 100 7 100-41 0-47-54-39-100-39v80" id="aZ"/><g id="z"><use transform="matrix(0.04938271604938272,0,0,0.04938271604938272,0,0)" xlink:href="#aK"/><use transform="matrix(0.04938271604938272,0,0,0.04938271604938272,9.876543209876544,0)" xlink:href="#av"/><use transform="matrix(0.04938271604938272,0,0,0.04938271604938272,14.814814814814817,0)" xlink:href="#aD"/><use transform="matrix(0.04938271604938272,0,0,0.04938271604938272,24.69135802469136,0)" xlink:href="#aK"/><use transform="matrix(0.04938271604938272,0,0,0.04938271604938272,34.567901234567906,0)" xlink:href="#aZ"/><use transform="matrix(0.04938271604938272,0,0,0.04938271604938272,46.41975308641976,0)" xlink:href="#aB"/><use transform="matrix(0.04938271604938272,0,0,0.04938271604938272,56.2962962962963,0)" xlink:href="#aC"/><use transform="matrix(0.04938271604938272,0,0,0.04938271604938272,63.20987654320988,0)" xlink:href="#ay"/><use transform="matrix(0.04938271604938272,0,0,0.04938271604938272,69.08641975308643,0)" xlink:href="#aG"/><use transform="matrix(0.04938271604938272,0,0,0.04938271604938272,85.82716049382717,0)" xlink:href="#aH"/><use transform="matrix(0.04938271604938272,0,0,0.04938271604938272,96.64197530864197,0)" xlink:href="#aI"/><use transform="matrix(0.04938271604938272,0,0,0.04938271604938272,102.51851851851853,0)" xlink:href="#ay"/><use transform="matrix(0.04938271604938272,0,0,0.04938271604938272,108.39506172839508,0)" xlink:href="#aJ"/><use transform="matrix(0.04938271604938272,0,0,0.04938271604938272,119.20987654320986,0)" xlink:href="#aK"/><use transform="matrix(0.04938271604938272,0,0,0.04938271604938272,129.08641975308643,0)" xlink:href="#az"/><use transform="matrix(0.04938271604938272,0,0,0.04938271604938272,138.962962962963,0)" xlink:href="#aw"/><use transform="matrix(0.04938271604938272,0,0,0.04938271604938272,149.7777777777778,0)" xlink:href="#aL"/><use transform="matrix(0.04938271604938272,0,0,0.04938271604938272,154.71604938271608,0)" xlink:href="#av"/><use transform="matrix(0.04938271604938272,0,0,0.04938271604938272,159.65432098765436,0)" xlink:href="#aF"/><use transform="matrix(0.04938271604938272,0,0,0.04938271604938272,170.46913580246917,0)" xlink:href="#aM"/><use transform="matrix(0.04938271604938272,0,0,0.04938271604938272,175.40740740740745,0)" xlink:href="#aN"/><use transform="matrix(0.04938271604938272,0,0,0.04938271604938272,189.2345679012346,0)" xlink:href="#aH"/><use transform="matrix(0.04938271604938272,0,0,0.04938271604938272,200.04938271604942,0)" xlink:href="#aO"/><use transform="matrix(0.04938271604938272,0,0,0.04938271604938272,209.92592592592598,0)" xlink:href="#av"/><use transform="matrix(0.04938271604938272,0,0,0.04938271604938272,214.86419753086426,0)" xlink:href="#aF"/><use transform="matrix(0.04938271604938272,0,0,0.04938271604938272,225.67901234567907,0)" xlink:href="#aM"/><use transform="matrix(0.04938271604938272,0,0,0.04938271604938272,230.61728395061735,0)" xlink:href="#aA"/><use transform="matrix(0.04938271604938272,0,0,0.04938271604938272,241.43209876543216,0)" xlink:href="#aB"/><use transform="matrix(0.04938271604938272,0,0,0.04938271604938272,251.30864197530872,0)" xlink:href="#aC"/><use transform="matrix(0.04938271604938272,0,0,0.04938271604938272,258.2222222222223,0)" xlink:href="#ay"/><use transform="matrix(0.04938271604938272,0,0,0.04938271604938272,264.09876543209884,0)" xlink:href="#aP"/><use transform="matrix(0.04938271604938272,0,0,0.04938271604938272,276.88888888888897,0)" xlink:href="#aB"/><use transform="matrix(0.04938271604938272,0,0,0.04938271604938272,286.76543209876553,0)" xlink:href="#aQ"/><use transform="matrix(0.04938271604938272,0,0,0.04938271604938272,302.567901234568,0)" xlink:href="#az"/><use transform="matrix(0.04938271604938272,0,0,0.04938271604938272,312.44444444444457,0)" xlink:href="#aR"/></g><g id="A"><use transform="matrix(0.04938271604938272,0,0,0.04938271604938272,0,0)" xlink:href="#aC"/><use transform="matrix(0.04938271604938272,0,0,0.04938271604938272,6.913580246913581,0)" xlink:href="#az"/><use transform="matrix(0.04938271604938272,0,0,0.04938271604938272,16.790123456790127,0)" xlink:href="#aQ"/><use transform="matrix(0.04938271604938272,0,0,0.04938271604938272,32.592592592592595,0)" xlink:href="#aJ"/><use transform="matrix(0.04938271604938272,0,0,0.04938271604938272,43.40740740740741,0)" xlink:href="#ax"/><use transform="matrix(0.04938271604938272,0,0,0.04938271604938272,53.283950617283956,0)" xlink:href="#az"/><use transform="matrix(0.04938271604938272,0,0,0.04938271604938272,63.1604938271605,0)" xlink:href="#aI"/><use transform="matrix(0.04938271604938272,0,0,0.04938271604938272,69.03703703703704,0)" xlink:href="#aA"/><use transform="matrix(0.04938271604938272,0,0,0.04938271604938272,79.85185185185185,0)" xlink:href="#aB"/><use transform="matrix(0.04938271604938272,0,0,0.04938271604938272,89.72839506172839,0)" xlink:href="#aC"/><use transform="matrix(0.04938271604938272,0,0,0.04938271604938272,96.64197530864197,0)" xlink:href="#ay"/><use transform="matrix(0.04938271604938272,0,0,0.04938271604938272,102.51851851851853,0)" xlink:href="#aP"/><use transform="matrix(0.04938271604938272,0,0,0.04938271604938272,115.30864197530865,0)" xlink:href="#aB"/><use transform="matrix(0.04938271604938272,0,0,0.04938271604938272,125.18518518518519,0)" xlink:href="#aQ"/><use transform="matrix(0.04938271604938272,0,0,0.04938271604938272,140.98765432098767,0)" xlink:href="#az"/><use transform="matrix(0.04938271604938272,0,0,0.04938271604938272,150.8641975308642,0)" xlink:href="#aM"/></g><g id="B"><use transform="matrix(0.04938271604938272,0,0,0.04938271604938272,0,0)" xlink:href="#aC"/><use transform="matrix(0.04938271604938272,0,0,0.04938271604938272,6.913580246913581,0)" xlink:href="#az"/><use transform="matrix(0.04938271604938272,0,0,0.04938271604938272,16.790123456790127,0)" xlink:href="#aQ"/><use transform="matrix(0.04938271604938272,0,0,0.04938271604938272,32.592592592592595,0)" xlink:href="#aJ"/><use transform="matrix(0.04938271604938272,0,0,0.04938271604938272,43.40740740740741,0)" xlink:href="#ax"/><use transform="matrix(0.04938271604938272,0,0,0.04938271604938272,53.283950617283956,0)" xlink:href="#az"/></g><path fill="#333" d="M123 10C108 53 80 86 19 72V37c35 8 53-11 59-39L3-190h52l48 148c12-52 28-100 44-148h51" id="ba"/><g id="C"><use transform="matrix(0.04938271604938272,0,0,0.04938271604938272,0,0)" xlink:href="#aS"/><use transform="matrix(0.04938271604938272,0,0,0.04938271604938272,9.876543209876544,0)" xlink:href="#aT"/><use transform="matrix(0.04938271604938272,0,0,0.04938271604938272,20.69135802469136,0)" xlink:href="#aD"/><use transform="matrix(0.04938271604938272,0,0,0.04938271604938272,30.567901234567906,0)" xlink:href="#aD"/><use transform="matrix(0.04938271604938272,0,0,0.04938271604938272,40.44444444444445,0)" xlink:href="#az"/><use transform="matrix(0.04938271604938272,0,0,0.04938271604938272,50.320987654320994,0)" xlink:href="#aS"/><use transform="matrix(0.04938271604938272,0,0,0.04938271604938272,60.19753086419754,0)" xlink:href="#aS"/><use transform="matrix(0.04938271604938272,0,0,0.04938271604938272,70.07407407407408,0)" xlink:href="#aU"/><use transform="matrix(0.04938271604938272,0,0,0.04938271604938272,75.95061728395062,0)" xlink:href="#aT"/><use transform="matrix(0.04938271604938272,0,0,0.04938271604938272,86.76543209876543,0)" xlink:href="#aV"/><use transform="matrix(0.04938271604938272,0,0,0.04938271604938272,91.7037037037037,0)" xlink:href="#aV"/><use transform="matrix(0.04938271604938272,0,0,0.04938271604938272,96.64197530864197,0)" xlink:href="#ba"/></g><g id="D"><use transform="matrix(0.04938271604938272,0,0,0.04938271604938272,0,0)" xlink:href="#az"/><use transform="matrix(0.04938271604938272,0,0,0.04938271604938272,9.876543209876544,0)" xlink:href="#aw"/><use transform="matrix(0.04938271604938272,0,0,0.04938271604938272,20.69135802469136,0)" xlink:href="#aF"/></g><g id="E"><use transform="matrix(0.04938271604938272,0,0,0.04938271604938272,0,0)" xlink:href="#aD"/><use transform="matrix(0.04938271604938272,0,0,0.04938271604938272,9.876543209876544,0)" xlink:href="#aJ"/><use transform="matrix(0.04938271604938272,0,0,0.04938271604938272,20.69135802469136,0)" xlink:href="#aw"/><use transform="matrix(0.04938271604938272,0,0,0.04938271604938272,31.506172839506174,0)" xlink:href="#aw"/><use transform="matrix(0.04938271604938272,0,0,0.04938271604938272,42.320987654320994,0)" xlink:href="#az"/><use transform="matrix(0.04938271604938272,0,0,0.04938271604938272,52.19753086419754,0)" xlink:href="#aD"/><use transform="matrix(0.04938271604938272,0,0,0.04938271604938272,62.074074074074076,0)" xlink:href="#ay"/><use transform="matrix(0.04938271604938272,0,0,0.04938271604938272,67.95061728395062,0)" xlink:href="#av"/><use transform="matrix(0.04938271604938272,0,0,0.04938271604938272,72.88888888888889,0)" xlink:href="#aJ"/><use transform="matrix(0.04938271604938272,0,0,0.04938271604938272,83.7037037037037,0)" xlink:href="#aw"/></g><path fill="#3a414a" d="M30-248c87 1 191-15 191 75 0 78-77 80-158 76V0H30v-248zm33 125c57 0 124 11 124-50 0-59-68-47-124-48v98" id="bb"/><path fill="#3a414a" d="M96-169c-40 0-48 33-48 73s9 75 48 75c24 0 41-14 43-38l32 2c-6 37-31 61-74 61-59 0-76-41-82-99-10-93 101-131 147-64 4 7 5 14 7 22l-32 3c-4-21-16-35-41-35" id="bc"/><path fill="#3a414a" d="M115-194c55 1 70 41 70 98S169 2 115 4C84 4 66-9 55-30l1 105H24l-1-265h31l2 30c10-21 28-34 59-34zm-8 174c40 0 45-34 45-75s-6-73-45-74c-42 0-51 32-51 76 0 43 10 73 51 73" id="bd"/><g id="F"><use transform="matrix(0.06172839506172839,0,0,0.06172839506172839,0,0)" xlink:href="#bb"/><use transform="matrix(0.06172839506172839,0,0,0.06172839506172839,14.814814814814813,0)" xlink:href="#U"/><use transform="matrix(0.06172839506172839,0,0,0.06172839506172839,27.160493827160494,0)" xlink:href="#ac"/><use transform="matrix(0.06172839506172839,0,0,0.06172839506172839,34.50617283950617,0)" xlink:href="#ad"/><use transform="matrix(0.06172839506172839,0,0,0.06172839506172839,40.67901234567901,0)" xlink:href="#W"/><use transform="matrix(0.06172839506172839,0,0,0.06172839506172839,45.55555555555556,0)" xlink:href="#bc"/><use transform="matrix(0.06172839506172839,0,0,0.06172839506172839,56.66666666666667,0)" xlink:href="#W"/><use transform="matrix(0.06172839506172839,0,0,0.06172839506172839,61.543209876543216,0)" xlink:href="#bd"/><use transform="matrix(0.06172839506172839,0,0,0.06172839506172839,73.8888888888889,0)" xlink:href="#U"/><use transform="matrix(0.06172839506172839,0,0,0.06172839506172839,86.23456790123458,0)" xlink:href="#S"/><use transform="matrix(0.06172839506172839,0,0,0.06172839506172839,98.58024691358027,0)" xlink:href="#ad"/></g><g id="G"><use transform="matrix(0.04938271604938272,0,0,0.04938271604938272,0,0)" xlink:href="#aF"/><use transform="matrix(0.04938271604938272,0,0,0.04938271604938272,10.814814814814815,0)" xlink:href="#az"/><use transform="matrix(0.04938271604938272,0,0,0.04938271604938272,20.69135802469136,0)" xlink:href="#aV"/><use transform="matrix(0.04938271604938272,0,0,0.04938271604938272,25.629629629629633,0)" xlink:href="#az"/><use transform="matrix(0.04938271604938272,0,0,0.04938271604938272,35.50617283950618,0)" xlink:href="#ay"/><use transform="matrix(0.04938271604938272,0,0,0.04938271604938272,41.38271604938272,0)" xlink:href="#az"/></g><g id="H"><use transform="matrix(0.04938271604938272,0,0,0.04938271604938272,0,0)" xlink:href="#aN"/><use transform="matrix(0.04938271604938272,0,0,0.04938271604938272,13.827160493827162,0)" xlink:href="#aY"/><use transform="matrix(0.04938271604938272,0,0,0.04938271604938272,24.641975308641975,0)" xlink:href="#av"/><use transform="matrix(0.04938271604938272,0,0,0.04938271604938272,29.58024691358025,0)" xlink:href="#ay"/><use transform="matrix(0.04938271604938272,0,0,0.04938271604938272,35.45679012345679,0)" xlink:href="#az"/><use transform="matrix(0.04938271604938272,0,0,0.04938271604938272,45.333333333333336,0)" xlink:href="#aH"/><use transform="matrix(0.04938271604938272,0,0,0.04938271604938272,56.14814814814815,0)" xlink:href="#aJ"/><use transform="matrix(0.04938271604938272,0,0,0.04938271604938272,66.96296296296296,0)" xlink:href="#aB"/><use transform="matrix(0.04938271604938272,0,0,0.04938271604938272,76.8395061728395,0)" xlink:href="#aC"/><use transform="matrix(0.04938271604938272,0,0,0.04938271604938272,83.75308641975309,0)" xlink:href="#aF"/></g><g id="I"><use transform="matrix(0.04938271604938272,0,0,0.04938271604938272,0,0)" xlink:href="#aF"/><use transform="matrix(0.04938271604938272,0,0,0.04938271604938272,10.814814814814815,0)" xlink:href="#az"/><use transform="matrix(0.04938271604938272,0,0,0.04938271604938272,20.69135802469136,0)" xlink:href="#aV"/><use transform="matrix(0.04938271604938272,0,0,0.04938271604938272,25.629629629629633,0)" xlink:href="#az"/><use transform="matrix(0.04938271604938272,0,0,0.04938271604938272,35.50617283950618,0)" xlink:href="#ay"/><use transform="matrix(0.04938271604938272,0,0,0.04938271604938272,41.38271604938272,0)" xlink:href="#az"/><use transform="matrix(0.04938271604938272,0,0,0.04938271604938272,51.25925925925927,0)" xlink:href="#aG"/><use transform="matrix(0.04938271604938272,0,0,0.04938271604938272,68,0)" xlink:href="#aH"/><use transform="matrix(0.04938271604938272,0,0,0.04938271604938272,78.81481481481481,0)" xlink:href="#aI"/><use transform="matrix(0.04938271604938272,0,0,0.04938271604938272,84.69135802469135,0)" xlink:href="#ay"/><use transform="matrix(0.04938271604938272,0,0,0.04938271604938272,90.5679012345679,0)" xlink:href="#aJ"/><use transform="matrix(0.04938271604938272,0,0,0.04938271604938272,101.38271604938271,0)" xlink:href="#aK"/><use transform="matrix(0.04938271604938272,0,0,0.04938271604938272,111.25925925925925,0)" xlink:href="#az"/><use transform="matrix(0.04938271604938272,0,0,0.04938271604938272,121.1358024691358,0)" xlink:href="#aw"/><use transform="matrix(0.04938271604938272,0,0,0.04938271604938272,131.9506172839506,0)" xlink:href="#aM"/></g><g id="J"><use transform="matrix(0.04938271604938272,0,0,0.04938271604938272,0,0)" xlink:href="#aC"/><use transform="matrix(0.04938271604938272,0,0,0.04938271604938272,6.913580246913581,0)" xlink:href="#az"/><use transform="matrix(0.04938271604938272,0,0,0.04938271604938272,16.790123456790127,0)" xlink:href="#aQ"/><use transform="matrix(0.04938271604938272,0,0,0.04938271604938272,32.592592592592595,0)" xlink:href="#aJ"/><use transform="matrix(0.04938271604938272,0,0,0.04938271604938272,43.40740740740741,0)" xlink:href="#ax"/><use transform="matrix(0.04938271604938272,0,0,0.04938271604938272,53.283950617283956,0)" xlink:href="#az"/><use transform="matrix(0.04938271604938272,0,0,0.04938271604938272,63.1604938271605,0)" xlink:href="#aI"/><use transform="matrix(0.04938271604938272,0,0,0.04938271604938272,69.03703703703704,0)" xlink:href="#aN"/><use transform="matrix(0.04938271604938272,0,0,0.04938271604938272,82.8641975308642,0)" xlink:href="#aH"/><use transform="matrix(0.04938271604938272,0,0,0.04938271604938272,93.67901234567901,0)" xlink:href="#aO"/><use transform="matrix(0.04938271604938272,0,0,0.04938271604938272,103.55555555555557,0)" xlink:href="#av"/><use transform="matrix(0.04938271604938272,0,0,0.04938271604938272,108.49382716049381,0)" xlink:href="#aF"/><use transform="matrix(0.04938271604938272,0,0,0.04938271604938272,119.30864197530863,0)" xlink:href="#aR"/></g><g id="K"><use transform="matrix(0.06172839506172839,0,0,0.06172839506172839,0,0)" xlink:href="#L"/><use transform="matrix(0.06172839506172839,0,0,0.06172839506172839,14.814814814814813,0)" xlink:href="#V"/><use transform="matrix(0.06172839506172839,0,0,0.06172839506172839,19.691358024691354,0)" xlink:href="#V"/></g></defs></g></svg>